<?xml version="1.0" standalone="no"?>
<!DOCTYPE svg PUBLIC "-//W3C//DTD SVG 1.1//EN" "http://www.w3.org/Graphics/SVG/1.1/DTD/svg11.dtd" >
<svg xmlns="http://www.w3.org/2000/svg">
<metadata>Generated by IcoMoon</metadata>
<defs>
<font id="nuochong" horiz-adv-x="1024">
<font-face units-per-em="1024" ascent="896" descent="-128" />
<missing-glyph horiz-adv-x="1024" />
<glyph unicode="&#x20;" horiz-adv-x="0" d="" />
<glyph unicode="&#xe602;" glyph-name="bilibili" horiz-adv-x="1025" d="M748.625 457.637c-4.128 14.648-15.18 26.233-29.695 31.026-9.055 3.196-18.642 4.661-28.363 4.128h-354.605c-7.191 0.533-14.248 0.533-21.439 0-17.311-3.063-31.426-15.846-36.086-32.891-0.799-5.726-0.799-11.585 0-17.311v-215.985c-1.065-20.64 11.851-39.282 31.559-45.674 6.259-2.131 12.917-3.196 19.575-3.196h371.117c18.642-0.666 35.82 9.987 43.41 26.898 3.995 9.588 5.46 19.841 4.527 30.094v200.938c1.065 7.324 1.065 14.648 0 21.971zM427.71 302.373c-9.454-11.718-23.969-17.977-38.883-16.911s-28.363 9.454-35.953 22.371c-4.794 9.588-6.791 20.373-5.992 31.026v45.674c3.196 20.24 19.441 35.953 39.682 38.35l2.796-1.332c11.452 0.533 22.637-3.196 31.559-10.52 9.854-8.522 15.713-20.773 15.979-33.823v-45.674c0.399-10.386-2.93-20.773-9.188-29.162zM667.398 302.772c-8.522-12.384-22.637-19.841-37.684-19.841s-29.162 7.457-37.684 19.841c-5.726 9.721-8.256 21.172-7.324 32.358v45.674c2.397 20.906 18.776 37.551 39.682 40.214l0.932 0.399c12.251 0.932 24.235-3.196 33.423-11.185 9.188-8.123 14.781-19.441 15.447-31.692v-45.674c0.799-10.386-1.598-20.906-6.791-30.094zM512 896c-282.832 0-512-229.168-512-512s229.168-512 512-512 512 229.168 512 512-229.168 512-512 512zM829.453 173.208c-5.992-26.632-22.504-49.669-45.674-63.917-15.713-9.721-33.956-14.781-52.465-14.648h-419.188c-13.715-0.666-27.564 0-41.146 2.264-26.233 6.125-49.003 22.637-62.985 45.674-10.12 15.713-15.447 33.823-15.58 52.465v259.795c-1.198 12.65-1.198 25.3 0 37.951 8.522 44.609 45.94 77.899 91.348 81.228h59.789c-9.588 6.791-17.843 15.047-26.499 22.371-10.386 9.588-15.846 23.436-14.648 37.418 1.065 14.914 9.454 28.496 22.371 36.086 12.251 5.726 26.499 5.726 38.75 0 8.789-4.527 16.778-10.386 23.702-17.311l91.348-79.896h65.248l91.348 79.896c6.924 6.924 15.047 12.783 23.702 17.311 13.183 4.661 27.697 3.063 39.549-4.261s19.575-19.708 21.172-33.689c0.533-11.052-3.063-21.971-9.987-30.627-6.392-6.392-13.050-12.517-20.107-18.243-3.995-3.728-8.256-7.324-12.783-10.52h57.126c25.434-0.799 49.536-11.585 67.113-30.094 18.642-17.444 29.562-41.546 30.627-67.113v-262.458c0.799-13.316 0-26.632-2.131-39.682z" />
<glyph unicode="&#xe603;" glyph-name="qqkongjian" horiz-adv-x="1066" d="M1058.61 479.353l-252.591-238.4 53.924-340.572c2.838-11.352-2.838-19.867-11.352-25.543h-5.676c-2.838 0-5.676 0-8.514 2.838l-309.353 164.61-312.191-158.933c-8.514-5.676-19.867 0-25.543 8.514-2.838 2.838-2.838 8.514-2.838 11.352l65.276 343.41-244.076 249.753c-8.514 8.514-8.514 19.867 0 28.381 2.838 2.838 5.676 5.676 11.352 5.676l346.248 45.41 158.933 309.353c5.676 8.514 17.029 14.19 25.543 8.514l8.514-8.514 147.581-315.029 343.41-56.762c11.352-2.838 17.029-11.352 17.029-22.705 0-5.676-2.838-8.514-5.676-11.352zM686.82 533.277c-5.676 0-11.352 5.676-14.19 11.352l-136.229 283.81-144.743-280.972c-2.838-5.676-8.514-8.514-14.19-11.352l-315.029-39.733 224.21-224.21c5.676-2.838 8.514-11.352 11.352-17.029l-65.276-320.705 278.134 147.581c5.676 2.838 8.514 2.838 14.19 5.676 2.838 0 5.676 0 8.514-2.838l275.295-150.419-45.41 312.191c0 5.676 0 11.352 5.676 17.029l229.886 215.695-312.191 53.924zM596 229.6l48.248-5.676c17.029-2.838 34.057-2.838 48.248-5.676s34.057-2.838 48.248-5.676c-17.029-2.838-34.057-2.838-51.086-5.676s-34.057-2.838-51.086-2.838l-42.571-2.838-51.086-2.838c-34.057-2.838-65.276-2.838-99.333-2.838s-65.276-2.838-99.333-2.838c-14.19 0-28.381 11.352-28.381 25.543 0 8.514 5.676 19.867 14.19 22.705 28.381 14.19 56.762 31.219 87.981 45.41 28.381 14.19 59.6 31.219 87.981 45.41s59.6 28.381 87.981 42.571c22.705 11.352 31.219 14.19 31.219 14.19s-14.19 5.676-22.705 8.514c-14.19 5.676-28.381 8.514-42.571 14.19l-42.571 14.19c-28.381 8.514-56.762 19.867-85.143 31.219l-85.143 34.057c14.19-2.838 31.219-5.676 45.41-5.676s28.381-5.676 45.41-8.514c28.381-5.676 59.6-11.352 87.981-17.029l45.41-8.514 42.571-8.514c28.381-5.676 59.6-14.19 87.981-19.867 14.19-2.838 22.705-17.029 19.867-28.381-2.838-5.676-5.676-14.19-11.352-17.029h-2.838c-28.381-17.029-56.762-31.219-87.981-45.41s-56.762-31.219-87.981-45.41l-85.143-42.571s62.438-2.838 93.657-5.676l53.924-8.514z" />
<glyph unicode="&#xe604;" glyph-name="youku2" d="M512-128c-282.769 0-512 229.231-512 512s229.231 512 512 512 512-229.231 512-512-229.231-512-512-512zM119.751 506.526c-9.487-3.499-16.026-10.958-17.037-19.706-1.198-10.499-0.739-11.512 35.363-73.032 18.327-31.493 33.431-57.741 33.431-58.385 0-0.553-5.803-13.998-12.894-29.837-7.183-15.839-13.629-31.312-14.46-34.351-3.775-14.733 2.857-26.245 17.59-30.573 11.329-3.408 19.065-0.369 26.429 10.313 3.594 5.159 90.804 198.183 92.555 204.721 1.657 6.353 1.657 9.578-0.094 15.38-1.748 5.894-7.366 11.235-14.457 13.904-16.116 5.988-25.694 2.21-32.877-13.076-1.933-4.143-10.684-23.484-19.432-43.1-8.84-19.705-16.208-35.73-16.484-35.73-0.369 0.091-11.143 18.418-24.034 40.798-18.698 32.324-24.497 41.717-28.552 45.769-7.459 7.644-16.389 10.13-25.047 6.906zM341.877 505.236c-21.089-4.605-39.878-17.405-52.492-35.64-25.418-36.743-21.089-90.527 9.76-121.376 15.84-15.655 34.996-23.023 59.769-22.931 25.786 0.185 45.216 8.013 60.964 24.496 11.511 12.156 18.788 27.445 21.919 46.598 2.12 12.618 1.566 33.154-1.288 43.468-8.566 31.683-30.853 55.257-60.414 63.911-11.329 3.317-27.075 3.961-38.217 1.475zM371.991 460.939c10.957-5.064 20.077-17.311 23.757-31.77 2.949-11.602 1.016-30.759-3.957-40.704-12.709-24.774-38.403-31.13-56.73-13.998-20.63 19.247-21.642 57.279-2.119 78 11.512 12.065 25.141 15.010 39.048 8.472zM462.7 499.529c-4.511-1.383-9.851-7.183-11.787-12.895-1.657-4.605-1.748-8.563-1.748-56.084 0-50.096 0-51.294 2.116-58.938 1.106-4.325 3.316-10.496 4.881-13.627 3.502-7.277 12.985-17.499 20.168-21.828 19.616-11.878 51.301-15.286 78.554-8.38 23.67 6.079 38.5 19.985 45.039 42.455 2.113 7.273 2.113 7.736 2.113 60.319 0 51.851 0 53.045-1.933 57.1-2.763 5.985-7.27 9.946-13.165 11.694-10.31 2.948-21.278-1.014-25.606-9.302-3.218-6.262-3.407-8.563-3.863-58.109l-0.553-49.729-2.399-5.068c-3.408-7.365-7.459-11.511-14.454-14.919-5.617-2.763-6.912-3.039-14.462-2.945-7.095 0-9.114 0.368-14.090 2.577-6.723 3.131-11.327 7.827-14.826 15.196l-2.396 5.158-0.458 50.649-0.463 50.65-2.763 5.527c-4.052 8.103-8.563 10.957-17.773 11.233-3.87 0.092-8.472-0.181-10.131-0.734zM781.708 499.16c-4.693-1.659-8.288-5.249-10.864-10.961l-2.122-4.696v-52.954c0-52.582 0-53.045 2.122-60.319 8.745-30.114 33.519-45.585 73.393-45.677 18.971-0.094 35.461 3.407 47.613 9.945 2.669 1.38 7.827 5.432 11.423 8.839 7.824 7.369 12.892 16.302 16.205 28.273 2.122 7.735 2.122 8.38 2.122 59.4v51.572l-2.122 4.605c-3.596 7.826-8.933 11.878-17.125 12.984-6.912 1.014-13.171-1.106-18.056-5.984-6.902-7-6.721-5.435-7.27-61.796l-0.553-50.187-2.398-5.159c-3.131-6.629-8.839-12.341-15.465-15.38-4.427-2.116-6.356-2.486-13.91-2.486s-9.487 0.371-13.819 2.395c-6.46 3.091-11.549 8.181-14.559 14.458l-0.079 0.184-2.399 5.067-0.459 50.188c-0.553 54.151-0.553 53.688-5.617 61.334-3.226 4.606-9.943 7.736-16.855 7.736-3.131-0.092-7.183-0.645-9.205-1.38zM624.507 498.422c-5.435-2.024-8.842-4.973-11.055-9.67-2.12-4.237-2.207-5.34-2.946-38.403-0.365-18.693-0.553-51.108-0.462-71.924l0.276-37.755 2.766-5.435c2.304-4.512 3.594-5.803 7.369-7.736 3.963-2.12 5.706-2.392 13.812-2.392 7.736 0 9.858 0.368 13.084 2.024 9.389 5.064 10.404 9.116 10.404 42.363 0 14.367 0.186 26.063 0.463 26.063 0.365 0 16.116-14.369 35.083-31.956 19.247-17.868 36.376-33.063 38.771-34.351 5.709-3.040 15.198-3.684 21.18-1.382 9.758 3.778 13.718 10.498 12.985 22.286-0.738 12.064-1.754 13.353-30.114 39.509-13.629 12.615-24.861 23.39-24.861 23.852-0.098 0.55 7.085 7.642 15.839 15.84 27.904 26.244 28.727 27.165 31.956 33.335 1.654 3.317 3.127 7.922 3.407 10.681 1.010 9.764-4.608 19.432-14.094 24.038-4.328 2.119-5.894 2.395-10.776 2.028-3.131-0.276-7.642-1.383-9.851-2.49-2.949-1.47-13.725-11.787-37.024-35.363l-32.878-33.336-0.088 25.050c0 14.179-0.459 27.075-1.012 29.652-1.289 5.988-5.337 11.511-10.223 13.998-4.977 2.58-16.952 3.316-22.013 1.474z" />
<glyph unicode="&#xe605;" glyph-name="sinashare" horiz-adv-x="1283" d="M924.82 442.122v6.825c3.413 40.951 13.65 112.616-54.602 163.806l-3.413 3.413h-3.413c-20.476 10.238-44.364 17.063-68.252 17.063-30.714 0-61.427-6.825-92.141-13.65-17.063-3.413-30.714-6.825-47.777-10.238v6.825c-3.413 37.539-10.238 109.204-81.903 136.505-27.301 10.238-54.602 17.063-85.316 17.063-44.364 0-88.728-10.238-129.68-30.714-184.281-95.553-337.849-296.898-358.325-477.767v-3.413c0-214.995 232.058-385.626 528.956-385.626 133.092-3.413 262.772 34.126 371.976 102.379 95.553 58.015 160.393 156.981 174.044 269.597 10.238 133.092-81.903 170.631-150.155 197.932zM1023.786 247.602c-17.063-184.281-228.646-324.199-494.83-324.199s-474.354 143.33-474.354 327.612c13.65 163.806 160.393 354.912 331.024 440.228 30.714 17.063 64.84 23.888 98.966 23.888 20.476 0 40.951-3.413 58.015-10.238 27.301-10.238 30.714-37.539 34.126-78.49 3.413-27.301 6.825-85.316 61.427-85.316h3.413c27.301 3.413 58.015 6.825 85.316 13.65s54.602 10.238 81.903 13.65c10.238 0 23.888 0 34.126-6.825 27.301-23.888 27.301-58.015 23.888-98.966-3.413-27.301-6.825-64.84 30.714-81.903 6.825-3.413 10.238-3.413 17.063-6.825 75.078-27.301 116.029-47.777 109.204-126.267zM1023.786 742.432c-13.65 0-27.301-13.65-27.301-27.301s13.65-27.301 27.301-27.301c27.301 0 47.777-20.476 47.777-47.777 0-13.65 10.238-27.301 27.301-27.301 13.65 0 27.301 10.238 27.301 27.301v3.413c0 54.602-44.364 98.966-102.379 98.966zM1003.31 896c-17.063 0-30.714-13.65-30.714-30.714s13.65-30.714 30.714-30.714c119.442 0 214.995-95.553 218.408-214.995 0-17.063 13.65-30.714 30.714-30.714s30.714 13.65 30.714 30.714v3.413c-3.413 150.155-126.267 273.010-279.835 273.010zM583.558 486.486c-34.126 0-71.665-3.413-105.791-13.65-81.903-17.063-153.568-61.427-211.582-122.854-51.189-54.602-75.078-129.68-58.015-201.345 23.888-105.791 139.917-177.456 283.247-177.456 34.126 0 71.665 3.413 105.791 13.65 81.903 17.063 153.568 61.427 211.582 122.854 51.189 54.602 75.078 129.68 58.015 201.345-27.301 105.791-139.917 177.456-283.247 177.456zM771.252 148.636c-51.189-54.602-116.029-95.553-187.694-112.616-30.714-6.825-64.84-10.238-95.553-13.65-116.029 0-208.17 54.602-228.646 136.505-10.238 54.602 6.825 109.204 47.777 150.155 51.189 54.602 116.029 95.553 187.694 112.616 30.714 6.825 64.84 10.238 95.553 13.65 116.029 0 208.17-54.602 228.646-136.505 6.825-54.602-10.238-109.204-47.777-150.155zM505.068 281.728c-13.65 0-27.301-3.413-40.951-6.825-20.476-6.825-37.539-23.888-47.777-40.951s-10.238-40.951-3.413-61.427c13.65-27.301 44.364-44.364 75.078-40.951 13.65 0 27.301 3.413 40.951 6.825 20.476 6.825 37.539 23.888 47.777 40.951s10.238 40.951 3.413 61.427c-13.65 27.301-40.951 40.951-75.078 40.951zM535.781 199.826c-6.825-6.825-13.65-13.65-23.888-17.063-6.825-3.413-13.65-3.413-20.476-3.413-10.238 0-20.476 3.413-27.301 13.65-3.413 6.825-3.413 13.65 0 17.063 6.825 6.825 13.65 13.65 23.888 17.063 6.825 3.413 13.65 3.413 20.476 3.413 10.238 0 20.476-3.413 27.301-13.65 3.413-3.413 3.413-10.238 0-17.063z" />
<glyph unicode="&#xe606;" glyph-name="tv" d="M350.83 733.914l-96.961 93.983s-15.146 18.641 10.486 39.742c25.761 20.972 27.056 11.651 35.729 5.825s144.212-139.551 144.212-139.551h-93.466zM672.911 730.418l96.961 93.983s15.146 18.641-10.486 39.742c-25.632 20.972-27.056 11.651-35.729 5.825s-144.212-139.551-144.212-139.551h93.466zM1036.806 556.432c-3.495 147.189-131.396 175.151-131.396 175.151s-655.295 5.308-791.999 0c-136.703-38.577-126.217-175.151-126.217-175.151s1.812-292.566-0.129-440.661c14.758-148.095 128.936-171.656 128.936-171.656s45.568-0.906 78.837-0.906c3.495-9.58 6.084-56.054 57.866-56.054 51.652 0 57.866 56.054 57.866 56.054s378.523 1.812 409.98 1.812c1.812-15.793 9.58-58.643 61.361-57.866 51.652 0.906 55.147 61.361 55.147 61.361s17.476 1.812 70.035 0c122.593 22.784 129.713 166.478 129.713 166.478s-1.683 294.249 0 441.438zM931.301 87.939c0-23.172-18.382-42.072-41.037-42.072h-746.042c-22.654 0-41.037 18.771-41.037 42.072v494.125c0 23.172 18.382 42.072 41.037 42.072h746.042c22.654 0 41.037-18.771 41.037-42.072v-494.125zM181.763 442.513l219.036 42.072 16.57-82.333-217.224-42.072zM863.338 442.513l-219.036 42.072-16.7-82.333 217.353-42.072zM417.369 238.364s48.157-86.734 101.621 28.091c51.652-112.107 108.612-29.774 108.612-29.774l32.363-21.101s-60.455-97.22-140.198-23.69c-67.445-73.53-138.386 23.431-138.386 23.431l35.988 23.043z" />
<glyph unicode="&#xe607;" glyph-name="bilibili2" d="M987.889-46.688c-8.477-0.032-17.051-0.771-25.43 0.128-30.761 3.339-53.173-31.595-63.834-68.424-9.6-33.168-46.044-50.123-78.859-46.719-37.889 3.886-62.966 25.559-72.631 59.819-5.812 20.711-23.376 36.766-42.705 36.638-133.349-0.771-251.96-0.386-385.309 0-15.349 0.032-31.724-14.674-36.22-32.752-9.6-38.787-42.576-63.415-79.085-64.026-37.792-0.642-70.64 23.344-81.653 63.608-4.623 16.858-12.427 52.916-28.544 52.017-20.743-1.156-41.614-0.578-62.421-0.225-22.733 0.417-32.783 9.536-32.783 31.114 0.16 219.401 0.482 438.771 1.060 658.171 0.064 22.67 9.472 30.311 35.609 30.343 107.148 0.128 214.295 0.064 321.444 0.064h22.412c0.674 1.83 1.381 3.693 2.055 5.555-24.885 13.069-49.77 26.137-74.622 39.237-41.26 21.771-82.584 43.475-123.78 65.342-16.697 8.862-23.633 22.38-14.192 39.141 9.536 16.954 25.301 17.981 41.774 9.312 96.744-51.022 193.521-101.979 289.912-153.547 24.692-13.229 69.131-5.298 85.024 17.051 49.289 69.483 98.544 138.967 147.831 208.484 1.733 2.439 3.403 4.976 5.201 7.385 14.064 18.881 30.022 23.986 44.535 12.844 16.794-12.876 13.903-28.16 3.115-43.475-20.004-28.352-40.007-56.672-59.98-85.025-27.678-39.301-55.324-78.635-86.052-122.304h28.705c106.411 0 212.787 0.032 319.165-0.032 32.494-0.032 37.504-4.945 37.536-36.54 0.32-215.645 0.609-431.289 0.802-646.933 0.032-30.826-5.651-36.060-38.081-36.252zM827.985-111.196c17.019 1.124 25.109 46.205 30.279 63.255h-64.347c6.325-18.752 15.091-64.54 34.067-63.255zM200.895-111.228c18.848-1.156 27.742 44.407 33.361 63.126h-63.383c4.303-17.628 13.165-62.099 30.022-63.125zM961.302 609.042h-899.054v-610.072h899.054v610.072zM126.466 484.395c0.064 29.733 14.417 58.792 44.342 58.824 228.392 0.032 438.61 1.669 667.002 1.605 30.374 0 59.176-31.018 59.272-60.43 0.386-141.858-0.224-251.029 0-392.886 0.064-30.311-27.421-60.397-59.272-60.43-113.859-0.064-212.209 0-326.036 0s-212.177-0.064-326.035 0c-33.137 0.032-59.307 27.775-59.274 60.43 0.16 141.152-0.256 251.735 0 392.886zM842.402 95.908c0 134.119-4.591 257.195-4.591 388.487h-652.072c0-133.348-0.771-256.358-0.771-388.487h657.433zM370.752 406.176c1.862 0.835 4.174 0.674 11.945 1.798 4.528-4.431 15.957-10.532 17.179-18.174 1.38-8.926-3.404-24.499-10.307-28-42.191-21.415-85.538-40.714-128.981-59.627-13.23-5.746-27.776-1.412-31.147 12.716-2.215 9.248 1.766 26.812 8.413 30.15 43.475 21.995 88.396 41.165 132.899 61.136zM384.013 263.034c8.22 0.289 18.848-11.077 24.789-19.747 4.751-6.903 2.761-17.949 6.1-26.297 6.325-15.894 18.238-31.019 35.834-27.293 13.004 2.729 24.885 15.733 34.645 26.522 4.816 5.33 4.014 15.861 5.17 24.114 2.183 15.541 11.366 25.109 26.715 24.724 14.031-0.353 23.15-8.83 24.949-24.018 1.155-9.6 1.412-21.513 7.159-27.903 9.184-10.21 22.412-22.54 34.261-22.926 10.723-0.352 23.76 12.619 32.205 22.637 5.619 6.647 5.298 18.399 7.063 28 2.859 15.315 11.721 24.627 27.582 23.407 15.765-1.22 24.050-11.366 23.44-27.197-1.509-40.167-17.468-72.822-55.1-90.74-35.062-16.729-67.814-9.536-96.519 16.183-1.541 1.38-3.404 2.377-5.33 3.693-8.734-6.069-16.826-13.101-26.105-17.949-30.343-15.829-60.719-14.514-88.718 4.944-30.889 21.514-44.663 52.852-41.902 89.296 0.577 7.899 15.219 20.26 23.76 20.549zM608.006 408.039c7.449 13.037 20.678 16.601 33.040 9.568 49.094-27.967 97.644-56.896 145.872-86.244 5.779-3.5 8.477-11.913 10.499-14.931 0.546-23.857-19.201-36.829-37.375-26.586-48.581 27.389-96.359 56.223-144.074 85.152-12.587 7.643-15.251 20.326-7.963 33.041z" />
<glyph unicode="&#xe608;" glyph-name="xinlang" horiz-adv-x="1273" d="M1253.668 441.366c0 0-14.325-23.87-66.862 0 0 0 121.79 410.735-317.596 367.759 0 0-66.862 54.911 0 83.578 0 0 506.248 71.626 384.458-451.337zM902.641 658.668c0 0-38.212 31.058 0 66.879 0 0 253.124 23.87 200.587-234.035 0 0-52.537-7.154-66.862 16.732 0 0 42.976 152.814-133.725 150.423zM936.072 407.951c179.091-38.212 200.587-183.888 200.587-183.888-124.18-386.832-601.761-351.027-601.761-351.027-508.638 0-534.898 317.613-534.898 317.613 38.212 432.215 534.898 568.329 534.898 568.329 133.725 0 100.293-200.604 100.293-200.604 456.101 160.001 300.88-150.423 300.88-150.423zM503.122 453.969c-226.229-21.379-398.432-157.143-384.625-303.254s208.393-247.223 434.622-225.844c226.229 21.363 398.432 157.143 384.625 303.254-13.807 146.094-208.393 247.223-434.622 225.844zM512.733-7.564c-114.819-15.245-216.684 49.913-227.516 145.526s73.465 185.476 188.267 200.737c114.819 15.245 216.684-49.913 227.516-145.526s-73.465-185.476-188.267-200.737zM516.545 156.382c-9.444 39.432-53.774 60.527-99.023 47.138-45.266-13.406-74.284-56.214-64.856-95.63 9.444-39.432 53.774-60.527 99.023-47.138 45.266 13.406 74.284 56.214 64.856 95.63zM567.845 207.080c-2.842 13.138-16.147 20.176-29.72 15.713s-22.282-18.738-19.457-31.877c2.842-13.138 16.147-20.176 29.72-15.713s22.282 18.738 19.457 31.877z" />
<glyph unicode="&#xe609;" glyph-name="qq" d="M512 896c-282.67 0-511.896-229.226-511.896-511.896s229.226-512.104 511.896-512.104 511.896 229.226 511.896 511.896-229.173 512.104-511.896 512.104zM751.99 256.548c-22.181-2.101-25.861 29.814-40.762 39.366-6.289-30.989-21.203-53.118-42.393-69.415 19.807-15.136 56.106-20.029 54.279-52.883-2.101-39.835-74.543-50.548-126.956-46.829-38.439 2.792-61.325 16.767-83.167 31.68-12.108-4.423-24.687-15.84-37.735-21.203-53.575-22.181-170.523-13.283-175.181 34.707-3.262 34.016 35.229 40.070 55.91 54.279-21.438 15.37-37.5 35.869-42.393 68.019-15.657-4.188-19.102-38.439-40.762-37.735-23.069 0.705-26.552 48.46-24.23 78.509 3.497 46.124 37.043 81.993 54.279 105.766-0.926 26.096 0.926 49.582 12.108 63.361 0.47 67.327 23.76 106.928 57.306 140.474 34.016 34.016 85.725 59.864 137.447 60.334 61.73 0.705 110.19-29.358 140.474-58.937 27.022-26.552 44.728-54.801 52.883-96.672 2.61-12.578 0.926-27.949 4.423-43.789 1.396-6.524 8.39-13.518 10.438-22.599 2.792-11.652-1.396-26.096 1.396-39.366 2.101-10.021 11.417-17.471 16.545-24.23 14.914-19.102 34.707-50.548 37.735-80.14 4.423-32.62-0.47-80.897-21.66-82.698z" />
<glyph unicode="&#xe60d;" glyph-name="linkedin1" d="M512 864c265.12 0 480-214.88 480-480 0-265.080-214.88-480-480-480s-480 214.92-480 480c0 265.12 214.88 480 480 480zM760.8 175.76v184.081c0 98.64-52.641 144.561-122.841 144.561-56.679 0-82.080-31.2-96.2-53.040v45.519h-106.72c1.401-30.159 0-321.12 0-321.12h106.72v179.319c0 9.6 0.68 19.2 3.52 26 7.68 19.2 25.239 39.040 54.72 39.040 38.64 0 54.12-29.44 54.12-72.6v-171.8h106.719zM322.6 540.68c37.2 0 60.4 24.72 60.4 55.521-0.72 31.479-23.2 55.44-59.72 55.44s-60.36-23.961-60.36-55.44c0-30.84 23.16-55.521 59-55.521h0.68zM375.96 175.76v321.040h-106.761v-321.080h106.72z" />
<glyph unicode="&#xe610;" glyph-name="qqkongjian1" d="M673.233 433.329c-166.698 37.422-336.797 13.608-336.797 13.608 142.884-13.608 210.924-40.824 210.924-40.824l-200.718-163.296c187.11-40.824 340.199 6.804 340.199 6.804-200.718 17.010-224.532 34.020-224.532 34.020l210.924 149.688zM799.106-128c-6.804 0-17.010 3.402-23.814 6.804l-261.953 166.698-265.355-166.698c-6.804-3.402-13.608-6.804-23.814-6.804s-20.412 3.402-27.216 10.206c-13.608 10.206-20.412 30.618-17.010 51.030l68.040 312.983-231.336 210.924c-13.608 13.608-20.412 34.020-13.608 51.030s20.412 30.618 40.824 34.020l306.179 27.216 119.070 295.973c6.804 17.010 23.814 30.618 40.824 30.618s34.020-10.206 40.824-30.618l119.070-295.973 306.179-27.216c17.010 0 34.020-13.608 40.824-34.020 6.804-17.010 0-37.422-13.608-51.030l-231.336-210.924 71.442-312.983c3.402-17.010-3.402-37.422-17.010-47.628-6.804-10.206-17.010-13.608-27.216-13.608zM520.143 116.944l255.15-159.894-68.040 302.777 3.402 17.010 224.532 204.12-295.973 27.216-13.608 10.206-115.668 285.767-115.668-285.767-13.608-10.206-295.973-27.216 224.532-204.12 6.804-13.608-68.040-302.777 255.15 159.894 17.010-3.402zM799.106-124.598c-6.804 0-17.010 3.402-20.412 6.804l-265.355 166.698-265.355-166.698c-6.804-3.402-13.608-6.804-20.412-6.804-10.206 0-17.010 3.402-23.814 6.804-13.608 10.206-20.412 27.216-17.010 47.628l71.442 316.385-234.738 210.924c-13.608 10.206-17.010 30.618-13.608 47.628 6.804 17.010 20.412 27.216 37.422 30.618l309.581 27.216 119.070 299.375c6.804 17.010 20.412 27.216 37.422 27.216s34.020-10.206 37.422-27.216l119.070-299.375 309.581-27.216c17.010 0 30.618-13.608 37.422-30.618s0-34.020-13.608-47.628l-234.738-210.924 71.442-316.385c3.402-17.010-3.402-34.020-17.010-44.226-3.402-6.804-13.608-10.206-23.814-10.206zM520.143 110.14l261.953-163.296-68.040 312.983 3.402 13.608 231.336 207.522-302.777 27.216-10.206 6.804-119.070 292.571-119.070-292.571-10.206-6.804-302.777-27.216 227.934-210.924 3.402-13.608-68.040-309.581 261.953 163.296h10.206z" />
<glyph unicode="&#xe614;" glyph-name="sina" horiz-adv-x="1025" d="M612.393 367.9c-19.887 18.41-45.808 31.959-77.767 40.649s-66.092 11.301-102.396 7.832c-55.451-5.723-101.392-23.317-137.823-52.786-36.429-29.467-52.903-62.352-49.422-98.656 2.242-23.869 13.306-45.009 33.191-63.419 19.887-18.412 45.808-31.959 77.767-40.649s66.092-11.301 102.396-7.834c55.451 5.725 101.392 23.319 137.823 52.786 36.429 29.467 52.903 62.352 49.422 98.656-2.242 23.871-13.304 45.009-33.191 63.421zM529.194 244.763v0.020c-11.197-25.359-30.839-44.012-58.926-55.96s-55.94-13.439-83.555-4.47c-26.612 8.452-44.952 24.182-55.020 47.188-10.066 23.006-9.259 46.317 2.422 69.934 11.683 23.131 30.518 40.412 56.504 51.846 25.984 11.432 52.161 13.794 78.519 7.082 27.601-7.215 47.306-22.072 59.114-44.578 11.812-22.506 12.122-46.194 0.942-71.063zM459.071 301.475c-3.481 1.241-7.025 1.175-10.632-0.188s-6.279-3.663-8.022-6.892c-4.233-7.716-2.618-13.312 4.846-16.795 3.481-1.241 7.088-1.175 10.82 0.188s6.469 3.663 8.208 6.892v0.020c1.991 3.229 2.43 6.524 1.316 9.88s-3.295 5.653-6.536 6.892zM511.761 896c-282.634 0-511.755-229.121-511.755-511.755s229.121-511.755 511.755-511.755 511.755 229.121 511.755 511.755-229.121 511.755-511.755 511.755zM746.664 250.945c-9.206-17.782-22.755-34.814-40.649-51.092s-38.845-30.888-62.852-43.824c-24.008-12.938-52.11-23.256-84.305-30.957s-65.826-11.558-100.892-11.571c-35.065-0.014-69.26 4.149-102.584 12.49s-63.23 19.908-89.715 34.695c-26.487 14.788-47.813 33.561-63.983 56.316-16.167 22.755-24.251 47.564-24.251 74.427 0 28.605 8.642 59.067 25.923 91.387 17.281 32.322 41.839 64.4 73.673 96.234 42.029 42.029 84.487 71.369 127.379 88.025s73.542 15.785 91.952-2.612c16.167-15.918 18.653-41.902 7.456-77.957-0.989-3.481-1.114-5.968-0.376-7.456 0.74-1.49 1.985-2.361 3.738-2.612 0.651-0.095 1.402-0.149 2.165-0.149 1.149 0 2.269 0.123 3.349 0.356l-0.104-0.019c2.002 0.398 3.692 0.852 5.336 1.404l-0.302-0.088 2.234 0.752c34.563 14.677 65.15 22.017 91.763 22.017s45.634-7.583 57.066-22.749c11.197-15.667 11.197-37.802 0-66.405-0.501-3.229-1.059-5.717-1.672-7.456-0.611-1.741-0.055-3.295 1.672-4.658 1.727-1.365 3.217-2.297 4.47-2.798s3.37-1.247 6.35-2.234c14.177-4.47 26.982-10.312 38.413-17.525 11.434-7.215 21.383-17.345 29.849-30.393 8.468-13.048 12.693-27.531 12.678-43.447l0.020-0.063c0-16.905-4.603-34.25-13.809-52.032l0.006-0.008zM753.182 495.258c3.105-15.305 2.297-29.913-2.422-43.824-1.991-5.723-5.662-9.95-11.006-12.678-5.347-2.729-10.884-3.223-16.607-1.484-5.725 1.991-9.95 5.662-12.678 11.009s-3.223 10.884-1.484 16.607c4.971 15.667 1.985 29.467-8.961 41.399-10.945 11.934-24.251 16.286-39.918 13.054-5.974-1.241-11.571-0.243-16.795 2.986-5.222 3.229-8.327 7.832-9.316 13.809-1.241 5.974-0.243 11.509 2.986 16.607 3.229 5.095 7.832 8.266 13.809 9.504 14.914 3.229 29.71 2.549 44.388-2.048 14.677-4.595 27.237-12.744 37.684-24.441v-0.020c10.44-11.685 17.216-25.177 20.321-40.48zM837.301 423.464c-2.242-6.712-6.469-11.683-12.678-14.914-6.211-3.229-12.678-3.724-19.405-1.484-6.727 2.242-11.697 6.469-14.914 12.678-3.217 6.211-3.836 12.678-1.858 19.405 6.964 20.388 8.208 41.771 3.738 64.148-4.47 22.379-14.42 42.021-29.849 58.926-15.415 17.157-33.819 29.028-55.208 35.615-21.39 6.585-42.898 7.644-64.524 3.174-6.964-1.49-13.431-0.307-19.405 3.552-5.974 3.857-9.707 9.267-11.197 16.231s-0.307 13.369 3.552 19.219c3.857 5.85 9.267 9.518 16.231 11.009 30.581 6.461 60.919 5.034 91.011-4.282s55.954-26.039 77.581-50.174v-0.020c21.641-23.869 35.627-51.531 41.966-82.989s4.658-61.489-5.034-90.094h-0.006zM416.541 283.948c-8.452 3.481-17.533 3.608-27.237 0.376-9.707-3.231-17.165-8.948-22.371-17.148-5.472-8.452-7.088-16.969-4.846-25.547s7.589-14.859 16.043-18.841c8.452-3.984 17.715-4.296 27.781-0.94s17.839 9.259 23.311 17.715h0.020c5.222 8.452 6.585 17.032 4.096 25.733-2.494 8.701-8.092 14.919-16.797 18.653z" />
<glyph unicode="&#xe615;" glyph-name="youku1" d="M557.972 239.463c5.894 7.407 11.282 30.726 11.282 48.824v5.472h-12.63v-27.947c0.088-25.76 0.172-27.864 1.348-26.35zM601.917 243.078l-2.778 5.555-0.249 22.563-0.25 22.554h-7.498v-6.308c0-18.687-5.215-43.523-11.867-56.908-3.788-7.661-3.704-7.577-13.804-1.768l-8.843 5.135v-20.964h74.082v14.817l-7.153 1.012c-11.283 1.514-17.258 5.472-21.64 14.311zM620.607 277.006c0-23.652 1.097-27.947 7.406-29.209l2.694-0.507v23.234h0.004v23.23h-10.102l-0.001-16.749zM556.626 179.946c0-11.871 0.932-15.407 4.464-17.511 2.528-1.599 4.462-1.685 32.415-1.685 32.405 0 34.175 0.253 36.276 4.716 0.505 1.266 0.927 6.653 0.927 12.968v10.94h-74.081l-0.001-9.428zM598.716 332.481v13.464h-7.578v-26.938h7.578v13.474zM512.001 896c-282.768 0-511.979-229.22-511.979-511.999s229.21-512.001 511.979-512.001c282.765 0 511.976 229.22 511.976 512s-229.212 512-511.976 512zM605.196 582.076c0.677 30.222 0.756 31.231 2.692 35.105 2.023 4.292 5.138 6.988 10.106 8.839 4.625 1.683 15.574 1.011 20.121-1.348 4.467-2.273 8.168-7.321 9.345-12.796 0.505-2.355 0.926-14.141 0.926-27.103l0.078-22.898 30.055 30.471c21.297 21.55 31.147 30.98 33.842 32.326 2.019 1.011 6.145 2.023 9.006 2.275 4.462 0.336 5.893 0.083 9.85-1.853 8.672-4.21 13.807-13.048 12.884-21.973-0.253-2.522-1.603-6.731-3.113-9.762-2.952-5.64-3.704-6.483-29.213-30.472-8.004-7.495-14.567-13.977-14.477-14.479 0-0.422 10.265-10.271 22.724-21.804 25.924-23.91 26.851-25.087 27.527-36.115 0.671-10.776-2.951-16.918-11.87-20.374-5.467-2.104-14.143-1.514-19.362 1.265-2.187 1.179-17.847 15.070-35.44 31.402-17.34 16.077-31.737 29.21-32.072 29.21-0.253 0-0.422-10.693-0.422-23.823 0-30.394-0.929-34.096-9.512-38.727-2.946-1.512-4.886-1.848-11.957-1.848-7.41 0-9.002 0.251-12.628 2.187-3.45 1.766-4.629 2.948-6.735 7.070l-2.527 4.969-0.253 34.513c-0.082 19.027 0.092 48.656 0.423 65.744zM359.644 632.25c10.186 2.273 24.58 1.683 34.935-1.348 27.021-7.909 47.393-29.46 55.224-58.421 2.609-9.428 3.114-28.201 1.178-39.734-2.86-17.506-9.512-31.483-20.035-42.596-14.397-15.066-32.155-22.221-55.726-22.391-22.647-0.083-40.157 6.653-54.635 20.961-28.201 28.201-32.158 77.364-8.922 110.95 11.531 16.667 28.706 28.369 47.983 32.579zM499.046 339.889c0.505-0.84-2.524-4.629-12.12-14.899l-6.651-7.074-14.647 12.546c-8.083 6.898-17.846 15.234-21.803 18.434-3.956 3.116-7.66 6.231-8.335 6.817-0.926 0.844 0.251 2.615 7.070 10.357 4.462 5.136 8.418 9.339 8.839 9.339 1.515 0 46.385-33.417 47.646-35.521zM194.985 408.667c-13.469 3.956-19.53 14.477-16.079 27.947 0.758 2.778 6.652 16.921 13.217 31.399 6.484 14.479 11.788 26.769 11.788 27.277 0 0.588-13.805 24.578-30.557 53.368-33.001 56.237-33.422 57.16-32.327 66.758 0.926 7.994 6.901 14.815 15.574 18.012 7.913 2.949 16.074 0.675 22.894-6.312 3.708-3.707 9.009-12.29 26.101-41.837 11.784-20.457 21.632-37.21 21.969-37.295 0.253 0 6.988 14.649 15.067 32.662 7.996 17.93 15.996 35.61 17.762 39.397 6.566 13.973 15.32 17.427 30.053 11.954 6.483-2.44 11.617-7.323 13.215-12.71 1.599-5.304 1.599-8.253 0.085-14.060-1.601-5.975-81.319-182.419-84.603-187.135-6.733-9.765-13.804-12.543-24.159-9.426zM507.718 163.437c-3.198-12.543-9.679-20.371-19.95-23.909-5.305-1.852-6.819-1.936-26.684-1.936-19.784 0-21.383 0.082-26.688 1.936-10.269 3.535-15.486 10.188-17.424 22.141-0.59 3.367-0.926 27.777-0.926 65.409v59.935h-2.86c-3.285 0-2.949 0.93-4.716-14.307-1.43-11.785-4.797-28.286-7.995-39.483-9.681-33.166-26.014-60.443-55.308-92.176l-5.387-5.813-11.281 8.503-11.366 8.503-0.253-8.414-0.253-8.333h-30.218l-0.171 58.843-0.253 58.843-6.989-9.761c-3.786-5.39-7.49-10.523-8.163-11.45-1.094-1.517-1.77-1.097-11.027 7.155-5.387 4.797-10.522 9.345-11.451 10.101-1.683 1.349-1.597 1.516 5.388 11.363 22.981 32.159 41.586 69.367 53.457 106.997 1.766 5.723 3.281 10.352 3.368 10.346 0.672 0.086 27.78-10.352 28.283-10.863 1.517-1.512-9.34-34.174-17.593-52.862l-4.547-10.269v-146.897l6.398 6.231c20.879 20.628 39.229 49.161 47.058 73.407 4.378 13.385 8.84 37.379 8.84 47.139v3.198h-51.433l0.254 12.882 0.25 12.796 25.846 0.251 25.928 0.169 0.169 32.241 0.253 32.158 15.404 0.254 15.321 0.169v-64.822h94.283v-26.096h-58.924v-58.252c0-53.876 0.083-58.588 1.514-61.283 2.273-4.713 5.893-6.059 14.984-5.639 8.922 0.419 12.29 1.937 14.647 6.565 1.601 3.031 3.536 16.921 4.714 33.167 0.336 4.208 0.843 8.163 1.095 8.921 0.419 1.178 2.273 0.84 14.731-2.696 7.827-2.27 14.394-4.292 14.649-4.547 0.833-0.753-3.205-33.081-4.973-39.815zM482.547 477.692c-6.565 3.957-15.234 13.302-18.436 19.954-1.43 2.86-3.452 8.503-4.461 12.455-1.936 6.988-1.936 8.083-1.936 53.877 0 43.437 0.085 47.057 1.598 51.267 1.77 5.222 6.653 10.522 10.776 11.786 1.515 0.505 5.725 0.756 9.258 0.672 8.419-0.253 12.544-2.862 16.246-10.269l2.527-5.052 0.424-46.299 0.417-46.298 2.189-4.715c3.199-6.738 7.409-11.030 13.554-13.891 4.548-2.020 6.394-2.355 12.879-2.355 6.903-0.086 8.086 0.167 13.22 2.691 6.393 3.116 10.096 6.906 13.21 13.638l2.193 4.632 0.505 45.459c0.417 45.291 0.589 47.393 3.533 53.116 3.958 7.577 13.981 11.196 23.406 8.501 5.385-1.598 9.51-5.218 12.033-10.688 1.769-3.706 1.769-4.797 1.769-52.194 0-48.066 0-48.49-1.932-55.139-5.977-20.538-19.535-33.25-41.169-38.807-24.911-6.315-53.873-3.2-71.805 7.659zM657.478 236.258c-0.337-91.924 0-86.622-6.149-92.766-6.315-6.313-7.826-6.565-52.357-6.901-49.409-0.507-56.824 0.336-63.053 7.071-5.215 5.637-4.961 0.078-5.215 91.842l-0.172 83.508h38.728v26.938h-38.728v26.094h127.115v-26.096h-37.125l0.254-13.217 0.254-13.302 18.346-0.254 18.356-0.169-0.254-82.749zM785.35 198.045c-0.337-49.582-0.166-48.742-6.061-54.636-2.7-2.695-4.718-3.791-9.347-5.055-5.3-1.426-8.925-1.597-40.322-1.597-31.316 0-35.019 0.171-40.324 1.597-6.82 1.856-12.29 6.486-14.059 11.875-0.843 2.526-1.173 14.226-1.346 47.815l-0.337 44.363h112.125l-0.33-44.362zM791.496 256.714l-125.009 0.424-0.253 12.46-0.254 12.378h51.438l-0.174 17.086-0.251 17.005-24.585 0.504-3.193-13.3c-1.685-7.324-3.287-13.385-3.371-13.554-0.085-0.171-5.553 0.757-12.122 2.018-9.172 1.683-11.865 2.524-11.865 3.538 0 0.672 1.339 7.323 2.943 14.645 3.875 17.090 7.741 40.154 8.503 50.257l0.589 7.831 5.561-0.505c3.025-0.254 9.088-0.676 13.38-1.012l7.745-0.589v-2.609c0-1.431-0.588-6.399-1.262-11.028-0.676-4.635-1.266-9.093-1.266-9.848 0-1.348 1.013-1.515 9.68-1.515h9.688v18.098h0.001v18.098h28.616v-36.197l18.774-0.174 18.693-0.25 0.245-11.953 0.254-12.037h-37.968v-34.515h45.461v-25.257h0.001zM887.628 510.102c-3.028-10.942-7.66-19.108-14.811-25.843-3.289-3.114-8.004-6.82-10.441-8.080-11.11-5.977-26.184-9.177-43.524-9.091-36.449 0.083-59.095 14.226-67.087 41.753-1.942 6.648-1.942 7.070-1.942 55.136v48.406l1.942 4.292c2.354 5.22 5.64 8.501 9.93 10.019 1.847 0.672 5.553 1.178 8.414 1.262 6.318 0 12.46-2.86 15.405-7.070 4.632-6.988 4.632-6.566 5.137-56.066l0.418-45.876 2.193-4.632c2.777-5.889 7.487-10.605 13.382-13.383 3.957-1.852 5.726-2.191 12.629-2.191s8.67 0.337 12.719 2.273c6.054 2.778 11.271 7.999 14.133 14.059l2.192 4.716 0.507 45.876c0.503 51.519 0.336 50.089 6.646 56.487 4.467 4.459 10.188 6.395 16.506 5.472 7.488-1.012 12.368-4.716 15.654-11.87l1.941-4.212v-47.14c-0.002-46.639-0.002-47.226-1.942-54.298zM353.414 512.714c16.752-15.661 40.241-9.85 51.855 12.795 4.547 9.091 6.313 26.604 3.618 37.209-3.366 13.218-11.702 24.412-21.717 29.042-12.714 5.977-25.171 3.284-35.694-7.743-17.846-18.942-16.921-53.708 1.937-71.302zM708.997 161.848c4.038-1.349 37.209-1.349 41.244 0 5.56 1.932 5.896 3.534 5.896 31.565v24.58h-53.034v-24.58c-0.001-28.031 0.334-29.629 5.894-31.565z" />
<glyph unicode="&#xe617;" glyph-name="zoneshare" horiz-adv-x="1092" d="M734.441 429.835c-74.58 14.435-160.348 22.694-248.045 22.694-50.737 0-100.828-2.764-150.131-8.15l6.094 0.54c90.436-5.393 175.076-21.021 255.702-45.814l-7.669 2.030-236.191-170.19c54.148-11.253 116.374-17.696 180.104-17.696 77.036 0 151.874 9.413 223.426 27.153l-6.363-1.335c-234.655 19.316-264.004 36.208-264.004 36.208l246.941 154.56zM852.656-128c-9.585 0.001-18.541 2.692-26.155 7.36l0.219-0.125-280.317 165.822-280.624-166.095c-7.315-4.348-16.128-6.917-25.541-6.917-10.796 0-20.803 3.381-29.020 9.141l0.162-0.108c-12.881 9.074-21.193 23.883-21.193 40.635 0 4.048 0.485 7.982 1.401 11.748l-0.070-0.339 74.021 312.089-246.873 210.050c-10.779 9.088-17.579 22.599-17.579 37.698 0 5.571 0.926 10.927 2.632 15.92l-0.103-0.346c6.343 18.69 22.908 32.253 42.869 34.112l0.199 0.015 326.49 27.506 127.293 295.674c5.139 11.538 14.118 20.594 25.28 25.705l0.315 0.129c5.98 2.719 12.969 4.303 20.328 4.303 20.331 0 37.837-12.094 45.716-29.48l0.128-0.315 127.429-296.015 326.627-27.301c20.12-1.799 36.681-15.276 42.963-33.536l0.105-0.352c0.355-0.969 0.696-2.17 0.957-3.4l0.033-0.183c0.999-3.706 1.573-7.962 1.573-12.351 0-15.156-6.842-28.713-17.605-37.753l-0.076-0.062-246.941-209.811 74.021-312.055c0.87-3.469 1.37-7.451 1.37-11.549 0-16.609-8.2-31.303-20.773-40.255l-0.152-0.102c-8.083-5.847-18.177-9.379-29.092-9.453h-0.018zM861.461-61.999l0.341-0.205zM96.817 478.329l228.649-194.522c7.372-6.299 12.016-15.605 12.016-25.995 0-2.8-0.337-5.522-0.973-8.126l0.048 0.234-68.834-290.248 261.206 154.56c4.964 2.979 10.953 4.741 17.353 4.741s12.39-1.762 17.509-4.828l-0.155 0.086 261.206-154.526-68.834 290.077c-0.592 2.379-0.932 5.11-0.932 7.921 0 10.394 4.647 19.703 11.976 25.962l0.047 0.039 229.058 194.522-302.704 25.459c-12.775 1.123-23.441 9.134-28.342 20.257l-0.086 0.219-118.727 275.744-118.727-275.744c-4.986-11.342-15.652-19.353-28.298-20.467l-0.129-0.009z" />
<glyph unicode="&#xe618;" glyph-name="icon-youku" d="M512-128c-282.77 0-512 229.23-512 512s229.23 512 512 512c282.77 0 512-229.23 512-512v0c0-282.77-229.23-512-512-512v0zM512 834.56c-248.837 0-450.56-201.723-450.56-450.56s201.723-450.56 450.56-450.56c248.837 0 450.56 201.723 450.56 450.56v0c0 248.837-201.723 450.56-450.56 450.56v0zM778.506 334.029l-325.222-198.001c-6.702-6.669-14.943-11.798-24.143-14.807l-0.433-0.123-5.325-3.236-0.901 1.311c-3.927-0.896-8.437-1.41-13.067-1.41-33.831 0-61.256 27.425-61.256 61.256 0 0.064 0 0.127 0 0.191v-0.010 409.6c0 0.058 0 0.126 0 0.194 0 33.831 27.425 61.256 61.256 61.256 4.652 0 9.183-0.519 13.537-1.501l-0.409 0.078 0.901 1.311 5.325-3.236c9.633-3.132 17.874-8.261 24.578-14.932l-0.002 0.002 325.222-197.98-2.048-2.99c13.649-11.21 22.287-28.087 22.287-46.981s-8.638-35.771-22.181-46.897l-0.106-0.084zM737.28 379.904v8.192l-327.68 199.475v-407.204z" />
<glyph unicode="&#xe61a;" glyph-name="qq22" d="M956.806 327.194c-15.702 47.278-40.114 87.924-71.585 121.943l0.2-0.219v9.385c-0.175 31.396-8.596 60.789-23.203 86.17l0.45-0.849c0 193.748-157.064 350.811-350.811 350.811s-350.811-157.064-350.811-350.811v0c-13.957-24.531-22.183-53.894-22.183-85.179 0-0.050 0-0.1 0-0.15v0.008-8.532c-31.449-34.027-55.968-74.966-70.996-120.235l-0.674-2.342c-31.853-101.816-28.44-222.972 44.082-247.146 7.034-2.513 15.148-3.97 23.6-3.982h0.005c0.067 0 0.147 0 0.227 0 6.173 0 12.177 0.726 17.93 2.097l-0.524-0.105c-19.733-18.217-32.264-43.981-32.988-72.678l-0.003-0.129c0-76.22 89.871-133.101 213.302-133.101 2.756-0.095 5.994-0.149 9.245-0.149 56.925 0 109.974 16.591 154.577 45.202l-1.143-0.686h32.706c43.459-27.925 96.509-44.516 153.434-44.516 3.251 0 6.489 0.054 9.714 0.161l-0.469-0.012c123.431 0 213.302 56.881 213.302 133.101-0.479 29.141-13.060 55.252-32.922 73.597l-0.069 0.063c5.457-1.422 11.727-2.25 18.186-2.275h0.015c0.122-0.001 0.267-0.001 0.411-0.001 8.194 0 16.072 1.354 23.423 3.85l-0.513-0.151c71.385 24.459 75.936 145.614 44.082 246.862zM894.807 133.515c-0.812-0.139-1.748-0.219-2.702-0.219s-1.89 0.080-2.8 0.233l0.098-0.014c-14.226 2.935-26.172 11.072-34.011 22.291l-0.117 0.177c-4.624 5.576-11.553 9.101-19.306 9.101-0.012 0-0.024 0-0.035 0h-2.842c-8.662-0.874-15.958-6-19.842-13.232l-0.066-0.135c-9.903-18.422-20.368-34.243-32.086-49.025l0.518 0.677c-3.347-4.251-5.368-9.683-5.368-15.586 0-10.477 6.366-19.468 15.44-23.315l0.166-0.062c35.55-14.789 56.881-36.119 56.881-58.587 0-42.376-70.532-76.789-156.99-76.789-3.176-0.163-6.896-0.257-10.638-0.257-46.974 0-90.521 14.676-126.305 39.692l0.714-0.473c-4.465 3.887-10.339 6.257-16.768 6.257-0.004 0-0.008 0-0.013 0h-52.614c-0.015 0-0.032 0-0.049 0-6.325 0-12.096-2.373-16.471-6.278l0.024 0.021c-35.078-24.56-78.639-39.246-125.629-39.246-3.928 0-7.833 0.103-11.711 0.305l0.542-0.023c-85.321 0-156.99 34.413-156.99 76.789 0 22.468 20.477 44.082 56.881 58.587 9.241 3.909 15.606 12.9 15.606 23.377 0 5.904-2.021 11.335-5.409 15.64l0.041-0.054c-11.19 14.104-21.654 29.925-30.711 46.62l-0.858 1.729c-3.95 7.367-11.247 12.492-19.802 13.358l-0.107 0.009h-2.844c-0.055 0-0.119 0.001-0.184 0.001-7.794 0-14.765-3.522-19.408-9.062l-0.032-0.039c-7.828-11.474-19.68-19.705-33.486-22.687l-0.358-0.065c-0.855-0.154-1.839-0.243-2.844-0.243s-1.989 0.088-2.945 0.258l0.101-0.015c-26.165 8.816-35.55 89.587-8.248 176.899 14.768 43.403 38.356 80.464 68.803 110.61l0.023 0.023c4.418 4.551 7.142 10.769 7.142 17.623 0 1.409-0.115 2.792-0.337 4.139l0.020-0.147c-0.192 2.299-0.301 4.976-0.301 7.679s0.109 5.38 0.324 8.027l-0.023-0.348c0.233 23.659 7.196 45.645 19.062 64.193l-0.291-0.487c2.35 3.769 3.744 8.346 3.744 13.249 0 0.542-0.017 1.080-0.051 1.613l0.004-0.073v5.688c-0.091 2.728-0.142 5.934-0.142 9.153 0 162.726 131.916 294.642 294.642 294.642s294.642-131.916 294.642-294.642c0-3.219-0.052-6.425-0.154-9.619l0.012 0.466v-5.119c-0.030-0.461-0.047-0.998-0.047-1.54 0-4.902 1.394-9.479 3.806-13.356l-0.062 0.107c11.866-18.173 19.037-40.357 19.339-64.196l0.001-0.079c0.207-2.385 0.326-5.16 0.326-7.963s-0.118-5.578-0.35-8.321l0.024 0.358c-0.227-1.273-0.357-2.739-0.357-4.235 0-6.874 2.74-13.108 7.188-17.669l-0.005 0.005c30.18-29.964 53.565-66.73 67.669-107.809l0.588-1.97c23.89-86.459 14.505-167.229-11.661-176.045z" />
<glyph unicode="&#xe61b;" glyph-name="linkedin11" d="M263.424 560.192v-566.272h-188.576v566.272h188.576zM275.424 735.072q0.576-41.728-28.864-69.696t-77.408-28h-1.12q-46.848 0-75.456 28t-28.576 69.696q0 42.272 29.44 69.984t76.864 27.712 76-27.712 29.152-69.984zM941.728 318.464v-324.576h-188v302.848q0 60-23.136 93.984t-72.288 34.016q-36 0-60.256-19.712t-36.288-48.864q-6.304-17.152-6.304-46.304v-316h-188q1.12 228 1.12 369.696t-0.576 169.152l-0.576 27.424h188v-82.272h-1.12q11.456 18.272 23.456 32t32.288 29.696 49.696 24.864 65.44 8.864q97.728 0 157.152-64.832t59.424-189.984z" />
<glyph unicode="&#xe61e;" glyph-name="zone" d="M512 896c282.778 0 512-229.222 512-512s-229.222-512-512-512-512 229.222-512 512 229.222 512 512 512zM389.862 291.84c13.517 15.002 186.88 112.64 186.88 112.64l-226.38 30.72 302.796 3.302c2.927-2.682 4.756-6.523 4.756-10.79s-1.829-8.108-4.745-10.78l-0.011-0.010c-10.598-12.442-171.52-122.522-171.52-122.522l182.862-14.618-6.22 31.079 146.303 142.617-202.982 29.62-89.601 174.464-90.7-173.364-201.882-29.26 146.304-144.078-36.583-200.423 182.861 95.464 182.86-95.463-30.002 163.84-274.996-12.057c-3.72 3.481-6.038 8.42-6.038 13.9s2.318 10.42 6.027 13.891l0.011 0.010v1.818z" />
<glyph unicode="&#xe624;" glyph-name="youkushare" d="M512 896c-282.77 0-512-229.23-512-512s229.23-512 512-512c282.77 0 512 229.23 512 512v0c0 282.77-229.23 512-512 512v0zM512-49.642c-0.066 0-0.144 0-0.223 0-239.617 0-433.864 194.248-433.864 433.864s194.248 433.864 433.864 433.864c239.617 0 433.864-194.248 433.864-433.864 0-0.078 0-0.157 0-0.235v0.012c-0.379-239.341-194.3-433.262-433.605-433.642h-0.037zM688.306 422.511l-251.103 184.097c-7.486 5.911-17.059 9.482-27.466 9.482-24.589 0-44.522-19.933-44.522-44.522 0-15.131 7.548-28.499 19.085-36.544l0.145-0.096 202.574-148.703-207.471-153.377c-10.068-8.228-16.444-20.645-16.444-34.552 0-24.589 19.933-44.522 44.522-44.522 9.292 0 17.919 2.847 25.057 7.716l-0.154-0.099 256 189.217c11.035 8.198 18.108 21.193 18.108 35.84s-7.073 27.642-17.989 35.755l-0.119 0.085z" />
<glyph unicode="&#xe627;" glyph-name="youku" d="M523.456 385.024l-146.88 99.072c-20.478 14.667-33.664 38.385-33.664 65.182 0 44.147 35.789 79.936 79.936 79.936 16.020 0 30.939-4.713 43.447-12.827l-0.311 0.189 243.584-164.288c23.168-15.616 35.52-41.28 35.2-67.264 0.32-25.984-12.032-51.648-35.2-67.328l-243.648-164.288c-12.538-8.56-28.024-13.668-44.704-13.668-44.15 0-79.94 35.79-79.94 79.94 0 27.47 13.856 51.704 34.96 66.094l0.276 0.178 146.88 99.072zM512-128c-282.77 0-512 229.23-512 512s229.23 512 512 512v0c282.77 0 512-229.23 512-512s-229.23-512-512-512v0zM512 31.872c194.475 0 352.128 157.653 352.128 352.128s-157.653 352.128-352.128 352.128v0c-194.475 0-352.128-157.653-352.128-352.128s157.653-352.128 352.128-352.128v0z" />
<glyph unicode="&#xe628;" glyph-name="weixin1" horiz-adv-x="1228" d="M651.289 641.039c0 32.393-21.079 53.321-52.717 53.321s-63.401-20.983-63.401-53.321c0-32.023 31.803-53.485 63.401-53.485s52.717 21.476 52.717 53.485zM303.688 694.36c-31.543 0-63.538-20.928-63.538-53.321 0-32.009 31.94-53.485 63.538-53.485s52.58 21.49 52.58 53.485c-0.027 32.338-21.079 53.321-52.58 53.321zM967.209 384.089c-20.777 0-41.856-21.572-41.856-42.939s21.079-42.788 41.856-42.788c31.543 0 52.868 21.243 52.868 42.788s-21.257 42.939-52.868 42.939zM1228.795 244.945c0 169.234-154.587 313.521-344.364 328.538 0.145 0.898 0.227 1.934 0.227 2.989 0 1.231-0.113 2.437-0.328 3.606l0.019-0.121c-38.057 180.191-228.808 316.044-443.792 316.044-242.906 0-440.556-172.045-440.556-383.532 0-113.458 57.024-215.697 165.092-296.31l-37.673-115.021c-0.619-1.836-0.977-3.951-0.977-6.149 0-5.855 2.535-11.117 6.568-14.749l0.018-0.016c3.345-2.968 7.774-4.781 12.626-4.781 3.128 0 6.079 0.753 8.684 2.088l-0.107-0.050 141.449 71.945 17.417-3.593c43.543-9.093 81.147-16.91 127.46-16.91 13.632 0 51.154 5.074 54.308 9.12 50.962-129.668 191.547-223.226 356.926-223.226 42.363 0 85.234 10.382 123.716 20.16l109.028-60.521c2.664-1.535 5.858-2.441 9.264-2.441 4.579 0 8.776 1.637 12.037 4.357l-0.030-0.024c4.363 3.641 7.119 9.080 7.119 15.163 0 2.012-0.301 3.953-0.861 5.781l0.037-0.14-27.84 94.038c93.339 74.88 144.534 164.516 144.534 253.754zM483.152 180.392c-1.512 0.456-3.249 0.718-5.048 0.718-0.381 0-0.759-0.012-1.134-0.035l0.051 0.003c-12.041-1.056-24.26-1.577-36.384-1.577-40.882 0-75.428 7.173-115.487 15.579l-23.314 4.773c-1.12 0.253-2.405 0.398-3.725 0.398-2.985 0-5.796-0.741-8.261-2.048l0.096 0.046-102.198-51.977 26.564 81.051c0.604 1.774 0.953 3.817 0.953 5.942 0 6.335-3.099 11.946-7.864 15.4l-0.055 0.038c-102.678 72.685-154.724 161.266-154.724 263.176 0 183.236 174.020 332.351 387.948 332.351 189.105 0 356.57-116.859 391.089-272.296-198.267-2.633-358.723-144.232-358.723-318.17 0.169-26.177 3.889-51.416 10.699-75.354l-0.482 1.983zM1040.759 24.831c-4.433-3.468-7.256-8.817-7.256-14.826 0-1.896 0.281-3.727 0.804-5.453l-0.035 0.133 17.266-58.34-70.861 39.387c-2.529 1.435-5.553 2.284-8.775 2.29h-0.002c-1.58-0.002-3.111-0.212-4.566-0.604l0.123 0.028c-38.016-9.765-77.362-19.831-115.652-19.831-177.901 0-322.627 124.196-322.627 276.808s144.712 276.726 322.627 276.726c174.5 0 321.955-126.733 321.955-276.753 0-76.059-47.232-154.066-133.001-219.565zM735.59 384.144c-21.079 0-42.171-21.572-42.171-42.939s21.092-42.788 42.171-42.788c31.666 0 52.594 21.243 52.594 42.788s-20.928 42.884-52.594 42.884z" />
<glyph unicode="&#xe641;" glyph-name="wechat" d="M579.791 384.135c-11.668 0-23.341-10.836-23.341-24.175 0-10.838 11.666-21.675 23.341-21.675 17.512 0 30.016 10.838 30.016 21.675 0 13.338-12.503 24.175-30.016 24.175zM503.088 496.692c18.343 0 30.016 11.668 30.016 29.181 0 18.343-11.673 29.179-30.016 29.179-17.508 0-34.184-10.838-34.184-29.179-0.001-17.515 16.676-29.181 34.184-29.181zM512.259 895.44c-282.618 0-511.721-229.103-511.721-511.721 0-282.616 229.103-511.719 511.721-511.719 282.616 0 511.719 229.103 511.719 511.719 0.001 282.618-229.102 511.721-511.719 511.721zM415.548 254.075c-30.851 0-53.362 4.998-82.542 13.339l-84.207-42.524 24.183 71.706c-59.196 41.684-94.216 94.209-94.216 158.407 0 113.388 106.719 200.097 236.783 200.097 115.054 0 217.605-68.368 237.613-165.084-8.337 1.671-15.842 2.502-22.511 2.502-113.388 0-200.928-85.038-200.928-187.588 0-17.506 2.502-33.347 6.67-50.023-6.67-0.829-14.176-0.829-20.846-0.829zM763.214 172.371l16.672-60.033-63.363 35.849c-24.177-4.998-47.523-12.503-71.7-12.503-111.722 0-200.097 76.701-200.097 171.747s88.376 171.749 200.097 171.749c105.881 0 200.928-76.703 200.928-171.749 0-53.355-35.849-100.878-82.537-135.060zM338.009 555.053c-17.508 0-35.849-10.838-35.849-29.179 0-17.514 18.341-29.186 35.849-29.186 16.677 0 30.016 11.673 30.016 29.186 0 18.341-13.339 29.179-30.016 29.179zM710.69 384.135c-12.508 0-23.346-10.836-23.346-24.175 0-10.838 10.838-21.675 23.346-21.675 16.672 0 29.179 10.838 29.179 21.675 0 13.338-12.507 24.175-29.179 24.175z" />
<glyph unicode="&#xe662;" glyph-name="youku4" d="M467.166 840.578c-31.444-3.495-74.179-12.633-100.516-21.501-33.597-11.288-98.103-44.885-125.245-65.311-28.761-21.77-88.426-82.78-106.435-109.121-38.7-56.439-63.696-119.060-76.595-193.509-5.376-30.102-4.57-110.462 1.341-143.79 17.469-97.027 60.204-178.193 130.621-248.61 37.629-37.629 70.687-61.549 116.913-84.391 57.248-28.495 106.431-42.199 170.127-47.575 122.023-10.752 252.641 34.4 343.217 118.255 65.847 61.013 108.848 131.966 135.188 223.348 0 0 13.694 51.279 13.438 105.626s-2.15 74.175-7.526 99.444c-12.896 59.935-36.014 115.033-70.417 167.441-23.381 35.748-76.599 90.037-115.029 117.453-30.911 21.77-86.275 49.988-120.409 61.010-61.815 19.886-131.157 27.682-188.675 21.231v0zM581.123 749.196c24.996-4.297 70.147-20.156 99.714-34.939 34.4-16.93 66.116-40.851 96.758-72.567 47.572-49.183 74.988-97.024 94.874-166.366 6.987-24.726 11.291-27.682 11.291-91.378 0-60.471-4.57-67.458-10.216-87.351-21.501-75.254-52.408-128.201-104.011-178.459-51.872-50.528-113.691-83.586-183.835-98.365-26.071-5.376-117.989-5.646-146.21-0.27-71.223 13.711-143.79 54.023-195.929 108.851-51.067 53.487-85.47 120.405-97.563 189.481-5.376 31.177-5.376 97.027 0 130.621 8.332 50.797 36.284 114.493 69.612 158.573 61.815 81.975 160.184 138.144 256.939 146.207 19.347 1.608 91.109-1.079 108.578-4.038zM307.251 528.271c-18.545-6.182-35.209-17.469-51.872-35.478-15.858-16.93-25.801-36.284-29.297-56.979-1.341-8.598-1.341-8.598 6.182-6.448 4.301 1.341 12.902 4.297 19.354 6.717 26.877 9.677 77.94 15.858 74.984 9.137-0.806-1.881-5.642-12.899-11.018-24.726-5.106-11.558-11.827-31.713-15.053-44.882l-5.912-23.654-8.332 5.373c-10.482 6.185-29.293 6.724-38.164 0.806-8.332-5.373-15.589-23.651-13.438-33.864 1.075-4.031 5.646-11.824 10.482-16.93l8.868-9.141-6.717-6.185c-16.128-15.316-17.469-32.515-3.495-47.572 13.978-14.78 35.478-14.513 47.841 0.806l6.987 9.141 8.602-8.875c16.125-17.2 41.39-14.513 53.214 6.185 7.257 12.629 4.301 26.071-8.598 38.434l-10.213 9.407 7.793 4.57c16.934 9.673 19.62 36.553 4.57 50.528-9.407 8.605-20.429 10.749-33.867 6.185-5.373-1.881-10.749-2.956-11.288-2.15-3.761 3.492 15.858 48.377 31.983 73.103 8.066 12.902 12.097 16.664 16.934 16.664 12.363 0 56.979-12.899 78.21-22.576 11.558-5.376 21.504-9.677 22.040-9.677 2.42 0 0.806 15.589-2.686 28.491-8.602 32.253-35.478 64.771-65.311 78.21-13.169 5.912-20.159 7.257-43.81 8.062-18.275 0.543-31.983-0.532-38.97-2.683zM307.251 307.883c3.495-2.686 4.301-5.642 2.956-10.752-1.881-8.062-9.943-11.554-17.739-7.257-6.451 3.495-6.987 9.946-0.806 16.667 5.106 5.642 8.868 6.178 15.589 1.341zM646.97 526.66c-34.669-11.022-65.847-43.005-76.059-77.943-4.031-14.244-5.908-32.522-2.956-32.522 0.806 0 8.605 3.495 17.473 8.066 26.873 13.705 59.662 21.77 94.068 23.381 34.4 1.611 54.828-0.806 93.259-11.827 13.711-4.031 25.532-6.717 26.074-5.912 2.413 2.42-4.035 24.726-11.022 38.97-8.062 16.398-24.996 35.209-40.581 45.155-27.689 17.469-69.079 22.576-100.256 12.633v0z" />
<glyph unicode="&#xe666;" glyph-name="linkedinshare" d="M275.328 756c0.010-0.624 0.016-1.36 0.016-2.097 0-74.74-60.588-135.328-135.328-135.328s-135.328 60.588-135.328 135.328c0 0.726 0.006 1.451 0.017 2.174l-0.001-0.109c1.163 73.846 61.299 133.263 135.312 133.263 74.002 0 134.131-59.399 135.31-133.12l0.001-0.111zM211.328 756c0.010 0.454 0.016 0.99 0.016 1.527 0 39.393-31.935 71.328-71.328 71.328s-71.328-31.935-71.328-71.328c0-0.526 0.006-1.050 0.017-1.573l-0.001 0.078c0.838-38.745 32.445-69.833 71.312-69.833 38.857 0 70.456 31.070 71.31 69.722l0.001 0.080zM36.672-123.36c-17.673 0-32 14.327-32 32v0 620.064c0 17.673 14.327 32 32 32v0h206.656c17.673 0 32-14.327 32-32v0-620c0-17.673-14.327-32-32-32v0h-206.656zM68.672-59.36h142.656v556.064h-142.656v-556zM574.016 560.672c9.472 0 17.984-4.16 23.84-10.688 57.92 37.216 140.96 58.816 214.080 50.016 125.216-15.040 205.088-109.76 207.392-278.016v-413.312c0-17.673-14.327-32-32-32v0h-206.656c-17.673 0-32 14.327-32 32v0 371.968c0 88.224-79.52 119.168-142.656 68.32v-440.32c0-17.673-14.327-32-32-32v0h-206.688c-17.673 0-32 14.327-32 32v0 620c0 17.673 14.327 32 32 32v0h206.688zM955.328-59.328v380.896c-1.856 136.576-58.56 203.776-151.040 214.912-76.704 9.216-170.4-25.408-205.28-69.12-18.88-23.648-56.992-10.304-56.992 19.968v9.344h-142.688v-556h142.688v422.656c0.001 8.995 3.713 17.124 9.689 22.937l0.007 0.007c102.848 99.936 260.992 47.040 260.96-105.6v-340h142.656z" />
<glyph unicode="&#xe68a;" glyph-name="wechatshare" horiz-adv-x="1238" d="M469.732 194.254c-6.955-0.383-13.91-0.487-20.865-0.487-40.874 1.118-79.912 6.62-117.387 16.057l3.71-0.791-23.542 4.764c-2.177 0.463-4.678 0.728-7.24 0.728-5.943 0-11.554-1.425-16.508-3.953l0.206 0.095-65.341-32.931 13.145 40.303c1.234 3.512 1.948 7.561 1.948 11.777 0 12.338-6.108 23.25-15.465 29.876l-0.114 0.077c-99.072 69.027-149.251 152.485-149.251 248.219 0 173.281 168.656 314.256 375.98 314.256 0.395 0.001 0.863 0.002 1.33 0.002 90.863 0 175.317-27.44 245.528-74.486l-1.595 1.006c59.391-38.738 104.411-95.178 127.976-161.761l0.689-2.234c-95.274-5.368-181.017-42.272-247.893-100.338l0.508 0.432c-67.182-56.779-109.936-140.646-111.275-234.533l-0.003-0.229c-0.001-0.203-0.001-0.444-0.001-0.685 0-19.523 2.001-38.579 5.809-56.973l-0.313 1.811M1035.649 42.151c-9.128-6.704-14.987-17.397-14.987-29.457 0-3.123 0.393-6.154 1.132-9.047l-0.055 0.252 5.877-19.404-35.053 19.161c-5.047 2.911-11.1 4.628-17.555 4.628-3.191 0-6.284-0.42-9.227-1.207l0.249 0.057h-0.487c-33.745-10.419-72.809-17.37-113.178-19.36l-1.126-0.044c-173.281 0-314.256 117.955-314.256 262.79s141.358 262.581 314.743 262.581c170.012 0 313.734-120.319 313.734-262.651 0-71.739-46.319-145.6-129.847-208.333M1237.967 250.206c-1.71 90.372-41.689 171.080-104.357 226.837l-0.314 0.274c-62.57 57.214-143.244 95.584-232.494 105.611l-1.885 0.172c-41.799 178.427-234.24 312.517-449.945 312.517-247.524 0-448.972-173.872-448.972-387.49 0-111.278 54.839-212.123 158.501-292.104l-32.792-98.655c-1.214-3.489-1.914-7.511-1.914-11.696 0-11.002 4.843-20.873 12.513-27.597l0.042-0.036c6.396-5.397 14.731-8.677 23.833-8.677 5.96 0 11.591 1.406 16.58 3.906l-0.214-0.097 132.942 66.384 12.275-2.504c37.836-9.572 81.513-15.538 126.421-16.507l0.645-0.011c15.702 0 31.211 0.821 46.488 2.422l-1.908-0.162c30.761-62.206 77.471-112.535 134.863-146.84l1.592-0.882c62.614-38.165 138.35-60.76 219.363-60.76 0.964 0 1.926 0.003 2.889 0.010l-0.148-0.001c42.778 1.361 83.454 7.951 122.17 19.155l-3.485-0.864 100.394-54.978c5.077-2.845 11.142-4.521 17.598-4.521 20.166 0 36.513 16.347 36.513 36.513 0 3.733-0.56 7.334-1.601 10.726l0.068-0.259-23.786 79.251c89.127 74 138.332 163.022 138.332 250.897M250.41 598.366c-0.023-0.622-0.036-1.353-0.036-2.086 0-33.801 27.401-61.203 61.203-61.203s61.203 27.401 61.203 61.203c0 33.801-27.401 61.203-61.203 61.203-0.024 0-0.048 0-0.073 0h0.004c-32.987-0.168-59.815-26.303-61.095-59l-0.004-0.117M539.037 598.366c-0.023-0.622-0.036-1.353-0.036-2.086 0-33.801 27.401-61.203 61.203-61.203s61.203 27.401 61.203 61.203c0 33.801-27.401 61.203-61.203 61.203-0.024 0-0.048 0-0.073 0h0.004c-32.987-0.168-59.815-26.303-61.095-59l-0.004-0.117M685.089 292.144c0-29.864 24.21-54.074 54.074-54.074s54.074 24.21 54.074 54.074c0 29.864-24.21 54.074-54.074 54.074v0c-29.84-0.059-54.015-24.234-54.074-54.068v-0.006M909.558 292.144c-0.022-0.581-0.035-1.263-0.035-1.947 0-29.884 24.225-54.109 54.109-54.109s54.109 24.225 54.109 54.109c0 29.883-24.225 54.109-54.109 54.109v0c-29.184-0.037-52.959-23.143-54.071-52.060l-0.003-0.101" />
<glyph unicode="&#xe699;" glyph-name="qqshare" d="M916.188 406.953c-32.671 50.724-46.822 105.359-55.301 163.21-30.833 210.314-241.736 346.22-446.019 283.986-134.845-41.108-217.001-133.571-244.301-270.392-12.754-63.949-24.96-126.331-62.495-183.306-37.821-57.518-48.020-125.056-43.090-193.541 2.852-39.613 15.13-75.648 45.020-105.001 8.991-8.801 17.874-23.383 17.398-34.929-3.436-83.4 46.705-127.468 117.75-151.808 78.679-26.926 159.191-25.759 236.954 6.4 21.197 8.771 38.226 11.95 60.483 1.321 63.944-30.52 132.721-31.002 200.632-18.867 108.39 19.369 156.078 76.703 156.452 183.096 33.94 24.151 55.209 58.030 60.109 100.454 8.96 77.512-0.758 152.868-43.592 219.377zM872.192 225.362c-0.579-19.656-8.658-39.101-16.522-71.992-27.699 23.096-43.382 36.106-60.068 50.028-19.308-29.128-37.719-56.832-57.677-86.938 12.052-6.508 26.271-10.998 35.886-20.142 13.379-12.713 29.901-27.628 33.152-43.93 4.68-23.532-17.060-37.268-37.212-46.157-64.026-28.134-130.488-31.273-192.768-0.476-44.503 22.042-81.085 23.501-125.599 0.476-58.327-30.188-121.436-26.634-183.163-5.294-6.723 2.299-13.266 5.632-19.292 9.39-40.453 25.068-41.513 56.893-2.232 82.668 13.153 8.637 27.843 14.95 42.609 22.733-19.441 30.188-37.53 58.25-57.047 88.54-16.333-13.742-32.742-27.469-49.956-41.943-31.099 23.501-29.532 52.659-27.843 79.923 3.579 57.482 19.22 111.529 59.238 155.786 15.022 16.553 20.168 34.278 23.096 56.535 6.395 48.532 16.189 97.101 30.147 144.061 33.7 113.577 142.674 188.022 260.751 181.734 116.101-6.18 214.548-89.134 238.93-202.895 10.26-47.913 16.543-96.66 27.372-144.425 3.21-14.254 14.541-27.377 24.079-39.542 38.912-49.705 56.018-106.337 54.118-168.141z" />
<glyph unicode="&#xe69a;" glyph-name="bilibilishare" horiz-adv-x="1077" d="M278.744 855.202l174.727-174.781h170.9l174.781 174.727c9.758 9.758 23.24 15.794 38.131 15.794 29.782 0 53.925-24.143 53.925-53.925 0-14.891-6.036-28.372-15.794-38.131v0l-98.573-98.466h112.424c104.178 0 188.632-84.453 188.632-188.632v-431.158c0-104.178-84.453-188.632-188.632-188.632h-700.632c-104.178 0-188.632 84.453-188.632 188.632v431.158c0 104.178 84.453 188.632 188.632 188.632v0h112.371l-98.52 98.573c-9.758 9.758-15.794 23.24-15.794 38.131 0 29.782 24.143 53.925 53.925 53.925 14.891 0 28.372-6.036 38.131-15.794v0-0.054zM889.263 572.632h-700.632c-41.913-0.002-76.376-31.9-80.438-72.745l-0.027-0.336-0.377-7.761v-431.158c0.002-41.913 31.9-76.376 72.745-80.438l0.336-0.027 7.761-0.377h700.632c41.913 0.002 76.376 31.9 80.438 72.745l0.027 0.336 0.377 7.761v431.158c0 44.648-36.194 80.842-80.842 80.842v0zM323.368 410.947c29.765 0 53.895-24.129 53.895-53.895v0-107.789c0-29.765-24.129-53.895-53.895-53.895s-53.895 24.129-53.895 53.895v0 107.789c0 29.765 24.129 53.895 53.895 53.895v0zM754.526 410.947c29.765 0 53.895-24.129 53.895-53.895v0-107.789c0-29.765-24.129-53.895-53.895-53.895s-53.895 24.129-53.895 53.895v0 107.789c0 29.765 24.129 53.895 53.895 53.895v0z" />
<glyph unicode="&#xe6ba;" glyph-name="qqkongjian2" d="M952.3 483.9c-3.9 11.8-14.3 20.1-26.6 21.1l-277.8 23.9-108.6 256.8c-4.8 11.4-15.9 18.8-28.3 18.8s-23.5-7.4-28.3-18.8l-108.6-256.8-277.8-23.9c-12.3-1-22.8-9.3-26.6-21.1s-0.3-24.6 9.1-32.7l210.8-182.6-63.2-271.6c-2.8-12 1.8-24.5 11.8-31.8l0.2-0.1c10-7.1 23.2-7.7 33.8-1.3l238.8 144 238.8-144c4.8-2.9 10.3-4.4 15.9-4.4 6.5 0 12.7 2 18 5.8l0.1 0.1c10 7.3 14.6 19.8 11.8 31.8l-63.2 271.6 210.8 182.6c9.3 8 12.9 20.8 9.1 32.6zM657.4 294.7l5.3-22.7c-175.6 15.5-148.1 29-148.1 29l137.4 124.4c-148.3 32.2-297.7 12.2-297.7 12.2 125.4-11.3 158.4-45.3 158.4-45.3l-149.3-127.1c153.4-32.5 281.7 0.9 299.4 5.9l47.1-202.5-198.6 119.9-198.7-119.8 52.6 226-175.5 151.9 231.2 19.8 90.3 213.7 90.3-213.7 231.2-19.8-175.3-151.9z" />
<glyph unicode="&#xe6cb;" glyph-name="QQkongjian2" d="M822.1-110.9l-309.8 171.3-309.8-171.3 59 362.6-249 255.4 344.4 52.6 155.4 331.1 155.3-331.1 344.5-52.6-249.2-255.4 59.2-362.6zM115.9 472.5l198.9-204-46.6-286 244 134.9 244-134.9-46.7 286 199 204-274.9 42-121.3 258.9-121.6-258.9-274.8-42zM603 166.6h-254.3l202.7 255.8h-151.1v49.8h254.3l-202.7-255.8h151.1z" />
<glyph unicode="&#xe6e9;" glyph-name="bilibili3" horiz-adv-x="1129" d="M268.463 825.513c8.805 4.232 19.142 6.705 30.058 6.705s21.253-2.473 30.484-6.889l-0.426 0.184c14.129-7.364 26.248-16.323 36.773-26.872l0.003-0.003 141.449-123.767h101.136l141.447 123.767c10.539 10.532 22.655 19.489 35.962 26.485l0.814 0.39c7.079 2.61 15.255 4.119 23.784 4.119 36.275 0 66.171-27.31 70.25-62.491l0.031-0.329c0.042-0.909 0.066-1.974 0.066-3.045 0-16.85-5.893-32.324-15.73-44.473l0.104 0.133c-9.676-9.783-19.821-19.032-30.427-27.739l-0.691-0.551c-5.989-5.596-12.446-10.931-19.217-15.86l-0.586-0.406h88.405c41.018-1.36 77.668-18.993 103.904-46.613l0.061-0.065c27.887-26.244 45.746-62.87 47.376-103.673l0.009-0.291v-406.664c0.231-4.307 0.363-9.349 0.363-14.422 0-16.639-1.419-32.946-4.142-48.807l0.241 1.699c-9.742-42.090-35.363-76.948-70.063-98.629l-0.66-0.385c-22.699-14.211-50.279-22.639-79.828-22.639-0.529 0-1.058 0.003-1.586 0.008l0.081-0.001h-649.249c-4.564-0.248-9.906-0.39-15.281-0.39-17.081 0-33.828 1.428-50.129 4.171l1.76-0.245c-41.562 10.016-75.899 35.583-97.214 70.053l-0.386 0.671c-14.985 22.99-23.938 51.105-24.047 81.305v402.448c-0.868 8.797-1.362 19.016-1.362 29.35s0.495 20.552 1.462 30.633l-0.099-1.283c13.505 68.647 70.71 120.555 140.927 125.858l0.522 0.032h92.649c-14.853 10.608-27.583 23.339-41.020 34.654-14.085 12.97-22.879 31.5-22.879 52.084 0 2.080 0.090 4.139 0.266 6.174l-0.018-0.264c1.763 23.828 15.089 44.201 34.332 55.693l0.323 0.179M252.195 551.103c-27.072-4.92-48.505-24.699-55.752-50.422l-0.12-0.498c-0.605-4.038-0.95-8.698-0.95-13.438s0.345-9.4 1.013-13.956l-0.062 0.518v-334.524c-0.054-1.032-0.085-2.241-0.085-3.457 0-31.254 20.273-57.772 48.385-67.124l0.499-0.144c8.946-3.138 19.26-4.951 29.998-4.951 0.145 0 0.29 0 0.434 0.001h574.966c0.793-0.032 1.723-0.050 2.658-0.050 28.574 0 53.19 16.946 64.348 41.335l0.181 0.441c4.729 11.156 7.477 24.13 7.477 37.745 0 3.145-0.147 6.256-0.433 9.326l0.030-0.393v311.185c0.776 5.101 1.219 10.986 1.219 16.974s-0.443 11.873-1.298 17.624l0.079-0.65c-6.531 22.791-23.608 40.568-45.471 47.947l-0.499 0.146c-11.306 4.129-24.359 6.517-37.969 6.517-2.068 0-4.124-0.055-6.165-0.164l0.285 0.012h-549.526c-4.973 0.373-10.772 0.585-16.62 0.585s-11.647-0.213-17.389-0.63l0.769 0.045zM368.183 440.775c1.065 0.057 2.312 0.090 3.566 0.090 17.256 0 33.069-6.18 45.345-16.448l-0.111 0.091c14.848-12.748 24.319-31.394 24.752-52.262l0.001-0.074v-70.724c0.034-0.823 0.054-1.788 0.054-2.758 0-16.033-5.335-30.82-14.327-42.682l0.128 0.176c-13.070-16.116-32.87-26.331-55.056-26.331-25.819 0-48.406 13.835-60.753 34.496l-0.179 0.323c-5.986 11.868-9.492 25.867-9.492 40.686 0 2.607 0.109 5.189 0.321 7.742l-0.022-0.334v70.724c4.981 31.309 29.931 55.538 61.188 59.374l0.342 0.034zM733.825 440.775c1.517 0.116 3.285 0.182 5.069 0.182 37.631 0 68.397-29.39 70.598-66.468l0.009-0.194v-70.726c0.129-1.731 0.202-3.749 0.202-5.785 0-15.038-4.012-29.14-11.023-41.292l0.213 0.4c-12.918-18.676-34.222-30.756-58.347-30.756s-45.429 12.080-58.194 30.521l-0.154 0.235c-7.321 12.224-11.65 26.968-11.65 42.723 0 2.637 0.121 5.246 0.359 7.821l-0.025-0.331v70.725c3.78 32.502 29.12 58.083 61.177 62.2l0.353 0.037z" />
<glyph unicode="&#xe702;" glyph-name="youku5" d="M509.901 874.854c-271.718 0-491.981-220.288-491.981-492.006s220.262-492.006 492.006-492.006c271.744 0 491.981 220.262 491.981 492.006s-220.262 492.006-492.006 492.006zM509.901 22.042c-199.27 0-360.806 161.536-360.806 360.806s161.536 360.806 360.806 360.806 360.781-161.536 360.781-360.806-161.51-360.806-360.781-360.806zM502.144 572.595c-11.855 11.743-28.173 18.998-46.185 18.998-36.251 0-65.638-29.387-65.638-65.638 0-18.012 7.255-34.33 19.003-46.19l-0.005 0.005 97.075-96.922-96.922-96.922c-11.743-11.855-18.998-28.173-18.998-46.185 0-36.251 29.387-65.638 65.638-65.638 18.012 0 34.33 7.255 46.19 19.003l139.233 139.208c11.563 11.838 18.697 28.046 18.697 45.92 0 1.624-0.059 3.233-0.175 4.827l0.012-0.213c0.105 1.389 0.164 3.008 0.164 4.64 0 17.93-7.186 34.181-18.836 46.031l0.009-0.009-139.264 139.085z" />
<glyph unicode="&#xe836;" glyph-name="linkedin3" d="M682.656 554.656c164.943 0 298.656-133.713 298.656-298.656v0-298.656c0-23.552-19.104-42.656-42.656-42.656h-170.656c-23.558 0-42.656 19.098-42.656 42.656v0 298.656c0 23.558-19.098 42.656-42.656 42.656s-42.656-19.098-42.656-42.656v0-298.656c0-23.552-19.104-42.656-42.656-42.656h-170.656c-23.558 0-42.656 19.098-42.656 42.656v0 298.656c0 164.943 133.713 298.656 298.656 298.656v0zM896 0v256c0 117.827-95.517 213.344-213.344 213.344s-213.344-95.517-213.344-213.344v0-256h85.344v256c0 70.692 57.308 128 128 128s128-57.308 128-128v0-256h85.344zM85.344 512h170.656c23.552 0 42.656-19.104 42.656-42.656v-512c0-23.552-19.104-42.656-42.656-42.656h-170.656c-23.558 0-42.656 19.098-42.656 42.656v0 512c0 23.552 19.104 42.656 42.656 42.656zM128 426.656v-426.656h85.344v426.656h-85.344zM170.656 554.656c-70.692 0-128 57.308-128 128s57.308 128 128 128v0c70.692 0 128-57.308 128-128s-57.308-128-128-128v0zM170.656 640c23.558 0 42.656 19.098 42.656 42.656s-19.098 42.656-42.656 42.656v0c-23.558 0-42.656-19.098-42.656-42.656s19.098-42.656 42.656-42.656v0z" />
<glyph unicode="&#xe900;" glyph-name="youtube" d="M512 896c-282.77 0-512-229.23-512-512s229.23-512 512-512c282.77 0 512 229.23 512 512v0c0 282.77-229.23 512-512 512v0zM826.573 269.38c-3.413-42.633-35.84-97.041-81.101-104.892-69.832-5.045-151.299-7.92-233.438-7.92s-163.606 2.875-244.307 8.531l10.869-0.611c-46.831 5.905-77.619 62.327-81.101 104.892-3.485 34.459-5.473 74.469-5.473 114.944s1.988 80.486 5.871 119.941l-0.398-4.997c3.413 42.564 35.021 98.679 81.101 103.799 69.855 5.32 151.292 8.352 233.438 8.352s163.583-3.032 244.206-8.991l-10.768 0.639c52.087-1.911 77.619-55.603 81.101-98.236 3.424-35.283 5.376-76.277 5.376-117.726s-1.952-82.443-5.77-122.893l0.394 5.167zM448.137 255.898l192 128-192 128z" />
<glyph unicode="&#xe901;" glyph-name="android" horiz-adv-x="865" d="M64.068 575.59c-1.127 0.075-2.444 0.118-3.77 0.118-31.878 0-57.992-24.675-60.286-55.967l-0.012-0.198v-239.753c4.41-31.793 31.412-56.006 64.068-56.006s59.658 24.214 64.030 55.667l0.039 0.339v239.753c-2.324 31.492-28.446 56.163-60.33 56.163-1.315 0-2.621-0.042-3.915-0.125l0.177 0.009zM548.762 810.052l55.876 55.842c3.19 3.194 5.163 7.605 5.163 12.476 0 9.751-7.905 17.655-17.655 17.655-4.88 0-9.297-1.98-12.493-5.18v0l-68.813-68.813c-23.332 5.951-50.116 9.366-77.699 9.366-27.278 0-53.775-3.34-79.106-9.634l2.249 0.473-68.847 68.574c-3.196 3.2-7.613 5.18-12.493 5.18-9.751 0-17.655-7.905-17.655-17.655 0-4.871 1.973-9.282 5.163-12.476v0l55.671-55.535c-92.945-35.635-157.525-112.913-157.525-202.718 0-1.092 544.836 0 544.836 0-0.034 89.6-64.171 166.673-156.774 202.445zM352.905 671.573c-17.634 0.039-31.915 14.343-31.915 31.983 0 17.664 14.319 31.983 31.983 31.983s31.983-14.319 31.983-31.983v0c0 0 0 0 0 0 0-17.664-14.319-31.983-31.983-31.983-0.024 0-0.048 0-0.072 0h0.004zM513.331 671.573c-17.634 0.039-31.915 14.343-31.915 31.983 0 17.664 14.319 31.983 31.983 31.983s31.983-14.319 31.983-31.983v0c0 0 0 0 0-0.001 0-17.664-14.319-31.983-31.983-31.983-0.072 0-0.144 0-0.216 0.001h0.011zM801.314 575.59c-1.128 0.075-2.445 0.118-3.773 0.118-31.885 0-58.007-24.671-60.318-55.965l-0.012-0.199v-239.753c4.41-31.793 31.412-56.006 64.068-56.006s59.658 24.214 64.030 55.667l0.039 0.339v239.753c-2.325 31.491-28.446 56.16-60.33 56.16-1.303 0-2.597-0.041-3.88-0.122l0.175 0.009zM160.597 191.966c0.077-52.898 42.919-95.764 95.801-95.881h0.011v-168.004c4.351-31.835 31.367-56.102 64.051-56.102s59.7 24.267 64.014 55.766l0.038 0.336v168.004h96.29v-168.004c4.351-31.835 31.367-56.102 64.051-56.102s59.7 24.267 64.014 55.766l0.038 0.336v168.004h0.41c0.020 0 0.044 0 0.068 0 52.981 0 95.939 42.91 96.017 95.873v383.735h-544.768v-383.727z" />
<glyph unicode="&#xe902;" glyph-name="apple" horiz-adv-x="799" d="M549.137 740.386c35.858 35.965 58.029 85.593 58.029 140.4 0 5.354-0.212 10.66-0.627 15.907l0.044-0.693c-63.749-4.933-120.331-32.189-162.68-73.864l0.034 0.034c-36.431-34.757-59.083-83.682-59.083-137.897 0-4.564 0.161-9.091 0.476-13.575l-0.034 0.603c1.55-0.040 3.374-0.063 5.203-0.063 62.592 0 118.982 26.557 158.516 69.018l0.12 0.131zM667.341 345.975c0.287 80.505 41.996 151.207 104.916 191.934l0.897 0.544c-39.666 58.484-104.718 97.175-178.963 100.167l-0.442 0.014c-76.356 8.192-148.992-46.421-187.802-46.421s-98.441 45.397-161.86 44.169c-87.795-3.118-163.238-53.098-202.365-125.57l-0.626-1.269c-86.596-154.761-22.187-384.034 62.191-509.577 41.233-61.44 90.351-130.389 154.863-127.898 62.259 2.492 85.743 41.404 160.836 41.404s96.188-41.472 161.929-40.175c66.901 1.263 109.227 62.635 150.187 124.279 27.648 41.354 50.743 89.007 66.862 139.767l1.097 4.003c-78.287 35.681-131.724 113.252-131.724 203.305 0 0.466 0.001 0.931 0.004 1.396v-0.072z" />
<glyph unicode="&#xe903;" glyph-name="chrome" horiz-adv-x="1023" d="M511.454 576.41c106.020 0 191.966-85.946 191.966-191.966s-85.946-191.966-191.966-191.966c-106.020 0-191.966 85.946-191.966 191.966v0c0.019 106.012 85.954 191.946 191.964 191.966h0.002zM511.454 128.444c-129.002 0.055-235.671 95.608-253.147 219.797l-0.156 1.353-176.64 306.415-19.729-28.501c-4.881-8.943-9.591-17.988-13.961-27.307l-9.455-22.084c-3.14-7.612-6.246-15.326-9.011-23.211-3.14-8.738-5.871-17.579-8.431-26.419l-5.7-20.48c-2.355-9.489-4.369-19.012-6.212-28.57l-3.413-20.173c-1.399-9.387-2.492-18.671-3.413-27.989l-1.673-22.289c-0.41-8.499-0.58-17.067-0.58-25.498s0-17.067 0.58-25.498l1.673-22.289c0.853-9.318 1.98-18.671 3.413-27.989l3.413-20.173c1.843-9.557 3.823-19.081 6.212-28.57l5.7-20.48c2.628-8.806 5.325-17.681 8.431-26.419 2.799-7.817 5.905-15.497 9.011-23.211s6.007-14.746 9.455-22.050c4.335-9.25 9.079-18.227 13.995-27.307l6.383-12.527 2.935-4.574c5.632-9.626 11.844-18.807 18.125-27.989l10.035-14.95c6.042-8.26 12.663-16.111 19.285-23.893l13.244-15.872c5.769-6.315 11.947-12.322 18.022-18.364s12.049-12.39 18.398-18.057l15.872-13.312c7.919-6.554 15.804-13.175 23.893-19.251l14.814-10.24c9.216-6.315 18.466-12.527 27.989-18.125l4.54-2.935 12.527-6.11c8.943-4.881 17.988-9.694 27.307-14.029l2.662-1.365 12.971-5.325c30.826-13.414 66.91-24.517 104.428-31.553l3.194-0.498 146.057 253.269c-15.932-3.375-34.25-5.324-53.017-5.359h-0.026zM1021.645 419.328l-0.683 8.431c-7.335 54.682-19.858 104.014-37.331 150.938l1.559-4.779h-302.217c51.884-46.917 84.344-114.477 84.344-189.618 0-80.878-37.606-152.973-96.286-199.753l-0.516-0.398-179.985-312.149c0.456-0.001 0.996-0.002 1.536-0.002 74.665 0 146.253 13.172 212.568 37.32l-4.32-1.375 2.082 0.683 3.413 1.365c43.104 17.308 80.326 38.829 113.929 64.806l-1.084-0.806 0.922 0.751c16.364 12.495 30.827 24.88 44.573 38.009l-0.2-0.19 2.185 1.877 7.066 7.202c29.925 29.843 56.157 63.364 77.968 99.834l1.29 2.327 2.458 3.618 4.437 8.977q10.479 19.012 19.319 38.81l7.543 17.749c4.983 12.527 9.353 25.19 13.346 38.025l5.291 16.521c4.165 14.155 8.296 32.373 11.447 50.924l0.432 3.075 1.263 10.24c2.219 15.599 3.789 31.334 4.574 47.206l0.273 12.698c0.273 15.906-0.068 31.812-1.195 47.684zM954.641 640.375c-11.92 20.227-23.586 37.387-36.216 53.764l0.888-1.199-4.13 5.12c-11.864 15.275-23.652 28.827-36.134 41.702l0.123-0.128-8.567 8.806c-13.418 13.32-27.595 25.939-42.434 37.761l-1.052 0.809-3.413 2.799c-15.24 11.793-32.458 23.473-50.387 34.077l-2.349 1.285-3.55 2.56-13.858 7.202c-7.987 4.335-15.974 8.636-24.201 12.527s-15.872 6.827-23.893 10.24l-19.968 7.851c-9.694 3.413-19.49 6.417-29.321 9.455l-16.316 4.71c-10.684 2.628-21.47 4.915-32.222 6.997l-15.223 3.004c-10.581 1.707-20.821 2.867-31.505 3.755l-17.237 1.775c-9.045 0.58-18.022 0.512-27.102 0.751h-22.221l-17.271-1.263c-41.689-2.833-80.524-10.21-117.556-21.685l3.619 0.966-7.782-2.116c-9.489-3.072-18.876-6.827-28.297-10.479l-18.057-7.134c-7.748-3.413-15.394-7.168-23.074-10.991s-14.882-7.339-22.187-11.401l-8.26-4.164-12.288-7.919c-7.27-4.471-14.473-9.045-21.538-13.926s-13.653-9.762-20.48-14.814l-17.613-14.063c-7.27-6.076-14.336-12.254-21.197-18.637l-13.039-12.732c-7.578-7.612-15.019-15.36-22.016-23.347l-4.779-5.769 145.613-252.587c34.525 103.3 130.382 176.435 243.322 176.435 0.017 0 0.034 0 0.051 0h-0.002z" />
<glyph unicode="&#xe904;" glyph-name="soundcloud" horiz-adv-x="2048" d="M512-128h128v806.059c-49.632-14.545-92.501-38.844-128.318-70.867l0.318 0.279zM256 417.314v-544.427l8.26-0.887h119.74v546.133h-119.74zM0 145.169c-0.001-0.309-0.002-0.674-0.002-1.040 0-97.226 50.597-182.634 126.897-231.329l1.105-0.66v465.818c-77.4-49.293-128.002-134.656-128.002-231.838 0-0.335 0.001-0.669 0.002-1.003v0.052zM768-127.898h128v770.458c-36.602 23.156-79.906 39.332-126.367 45.526l-1.633 0.178zM1783.808 418.236h-72.021c3.657 20.451 5.812 44.061 5.939 68.151v0.115c0.033 1.925 0.052 4.197 0.052 6.473 0 220.314-176.708 399.355-396.123 403.122l-0.353 0.005c-119.307-0.617-225.829-54.831-296.8-139.774l-0.501-0.617v-883.712h759.842c150.811 0 273.067 122.256 273.067 273.067s-122.256 273.067-273.067 273.067v0z" />
<glyph unicode="&#xe905;" glyph-name="edge1" horiz-adv-x="947" d="M365.909 643.413c-37.693-42.102-62.595-96.365-68.185-156.236l-0.082-1.084h362.359v27.307c-1.889 40.452-13.071 77.91-31.441 110.807l0.653-1.273c-26.882 41.71-71.233 70.17-122.46 75.043l-0.659 0.051c-18.383 3.102-39.561 4.875-61.153 4.875-55.81 0-108.853-11.845-156.754-33.158l2.457 0.976c-103.026-38.188-189.532-100.48-255.681-180.259l-0.797-0.989c-10.24-13.653-20.48-30.72-34.133-47.787-0.167 1.32-0.262 2.846-0.262 4.396 0 5.85 1.356 11.383 3.772 16.302l-0.097-0.218c12.269 101.32 52.842 191.402 113.471 264.189l-0.661-0.816c88.088 104.62 219.134 170.635 365.599 170.635 88.31 0 171.015-23.999 241.948-65.832l-2.227 1.215c88.959-50.836 156.491-130.554 190.57-226.151l0.918-2.952c18.852-51.517 31.113-111.060 34.081-173.039l0.053-1.382v-126.532h-642.833c-0.015-0.915-0.024-1.994-0.024-3.076 0-51.48 19.441-98.419 51.383-133.876l-0.159 0.18c39.369-39.513 91.174-66.612 149.047-74.927l1.413-0.167c24.132-3.991 51.941-6.271 80.283-6.271 96.479 0 186.785 26.426 264.076 72.435l-2.377-1.31c2.691 0.385 5.042 1.617 6.826 3.413l0.001 0.001h3.413v-205.175c0-6.827-3.413-10.24-10.24-13.653-70.544-36.893-153.447-60.359-241.368-64.796l-1.422-0.057c-16.171-1.482-34.974-2.327-53.975-2.327-37.72 0-74.661 3.33-110.548 9.712l3.789-0.558c-162.643 30.541-289.181 155.919-321.042 315.462l-0.426 2.558c-4.946 23.45-7.778 50.395-7.778 78.002 0 164.917 101.060 306.23 244.63 365.388l2.627 0.959z" />
<glyph unicode="&#xe906;" glyph-name="github" d="M512 896c-282.77 0-512-229.23-512-512s229.23-512 512-512c282.77 0 512 229.23 512 512v0c0 282.77-229.23 512-512 512v0zM655.36-6.042c-2.935 40.073-6.246 89.702-6.417 109.807 0.003 0.301 0.005 0.656 0.005 1.012 0 32.25-15.715 60.829-39.905 78.498l-0.275 0.192c147.866 12.39 218.249 94.106 223.3 202.103 0.213 3.477 0.335 7.542 0.335 11.636 0 58.171-24.564 110.605-63.885 147.495l-0.109 0.101c0.39 9.764 0.613 21.227 0.613 32.741 0 32.955-1.822 65.485-5.371 97.493l0.355-3.941c-33.348 9.591-111.104-31.471-132.847-49.015-33.878 10.009-72.8 15.768-113.067 15.768s-79.189-5.759-115.987-16.499l2.921 0.73c-48.333 34.133-103.322 54.989-133.325 49.118-9.708-19.998-15.383-43.499-15.383-68.326 0-20.859 4.006-40.783 11.29-59.043l-0.379 1.076c-35.635-32.563-85.333-72.67-71.885-156.672 21.675-123.153 108.305-189.611 247.842-205.858-19.328-3.296-34.313-18.5-37.242-37.671l-0.032-0.251c-93.696-38.639-120.491 23.893-132.335 40.175-39.322 48.674-74.615 34.543-76.8 33.792-1.988-1.001-3.343-2.997-3.413-5.316v-0.009c1.98-10.479 23.381-21.163 24.439-22.016 20.421-19.431 36.295-43.447 45.989-70.41l0.399-1.27c41.643-68.437 138.411-40.073 139.332-40.653 0-5.973-0.683-56.354-1.263-95.573-178.026 49.802-306.425 210.594-306.425 401.375 0 229.798 186.288 416.085 416.085 416.085s416.085-186.288 416.085-416.085c0-178.283-112.128-330.377-269.71-389.609l-2.869-0.946z" />
<glyph unicode="&#xe907;" glyph-name="behance" horiz-adv-x="1626" d="M653.312 438.17s154.317 10.24 154.317 190.327-123.46 267.503-282.931 267.503h-524.698v-1008.23h524.698s318.942-10.24 318.942 298.359c0 5.086 15.428 252.041-190.327 252.041zM231.492 721.101h293.205s72.021 0 72.021-102.878-41.165-123.46-92.604-123.46h-272.623zM509.269 72.943h-277.777v267.503h293.205s108.032 0 108.032-138.889c0-113.186-82.295-128.614-123.46-128.614zM1270.579 643.925c-385.707 0-385.707-385.707-385.707-385.707s-25.737-385.707 385.707-385.707c0 0 344.747-20.48 344.747 267.503h-180.053s5.154-108.032-159.471-108.032c0 0-180.053-10.24-180.053 174.899h524.698c5.086-0.205 61.781 437.043-349.867 437.043zM1430.050 340.412h-329.216c12.728 87.71 87.406 154.333 177.644 154.333 0.847 0 1.693-0.006 2.537-0.018l-0.128 0.001c149.163 0 149.163-154.317 149.163-154.317zM1054.549 839.407h416.666v-123.46h-416.666v123.46z" />
<glyph unicode="&#xe909;" glyph-name="opera" horiz-adv-x="959" d="M755.063 815.445c-74.955 50.514-167.294 80.631-266.666 80.631-3.019 0-6.031-0.028-9.036-0.083l0.451 0.007c-2.229 0.037-4.858 0.058-7.493 0.058-91.469 0-177.058-25.176-250.215-68.976l2.22 1.232c-138.957-83.354-224.29-239.514-224.29-439.398 0-270.507 191.829-516.915 479.676-516.915s479.642 246.34 479.642 516.915c-0.171 190.123-77.278 340.548-204.288 426.53zM479.778 800.427c154.419 0 191.761-214.528 191.761-409.395 0-180.565-23.415-422.195-189.918-422.195s-193.98 243.985-193.98 424.516c0.068 194.935 37.717 407.074 192.137 407.074z" />
<glyph unicode="&#xe90a;" glyph-name="dribbble" d="M512 896.034c-282.77 0-512-229.23-512-512s229.23-512 512-512c282.77 0 512 229.23 512 512v0c0 282.77-229.23 512-512 512v0zM847.974 648.226c54.712-68.826 88.7-156.289 91.362-251.585l0.013-0.592c-51.477 10.354-110.652 16.28-171.211 16.28-45.276 0-89.779-3.312-133.279-9.708l4.936 0.596q-16.282 37.342-33.485 72.499c96.2 38.749 177.23 97.56 240.981 171.663l0.683 0.813zM789.060 709.393c-58.436-69.408-132.952-123.427-217.915-156.569l-3.679-1.263c-52.088 95.836-103.848 176.904-160.543 254.124l4.281-6.111c30.305 7.705 65.094 12.126 100.917 12.126 106.001 0 202.959-38.717 277.504-102.781l-0.565 0.474zM328.158 770.082c53.582-70.92 105.942-151.24 152.715-235.101l5.459-10.659c-107.085-27.091-230.019-42.637-356.584-42.637-11.92 0-23.809 0.138-35.663 0.412l1.761-0.032c31.133 128.047 116.488 231.667 229.769 286.898l2.542 1.119zM84.343 384.034l0.341 13.824h2.287c12.995-0.385 28.284-0.605 43.625-0.605 140.65 0 276.99 18.453 406.732 53.071l-10.992-2.495q15.155-30.72 29.798-63.42c-154.612-49.19-281.453-148.659-364.371-278.833l-1.607-2.698c-65.708 74.54-105.813 173.015-105.813 280.858 0 0.105 0 0.21 0 0.315v-0.016zM252.587 44.442c72.192 108.749 172.783 216.303 336.521 261.495 37.442-91.325 67.396-198.073 84.874-308.965l1.074-8.27c-48.154-20.482-104.166-32.388-162.958-32.388-98.103 0-188.464 33.149-260.492 88.857l0.982-0.73zM753.698 31.334c-19.671 110.665-47.689 208.451-84.462 301.831l3.668-10.572c28.367 3.366 61.223 5.287 94.529 5.287 58.748 0 116.101-5.976 171.483-17.354l-5.472 0.939c-20.812-116.929-86.582-215.553-178.429-279.202l-1.42-0.931z" />
<glyph unicode="&#xe90b;" glyph-name="arrow" horiz-adv-x="5601" d="M0 234.384v264.647h5124.481v-264.647h-5124.481zM5124.481-128l476.084 512.070-476.084 511.93z" />
<glyph unicode="&#xe90d;" glyph-name="clock" d="M983.040 583.407c-52.235 123.593-148.833 219.88-269.351 270.47l-3.306 1.231c-58.609 25.889-126.956 40.96-198.822 40.96-0.182 0-0.364 0-0.545 0h0.029c-0.299 0.001-0.653 0.001-1.006 0.001-71.501 0-139.481-15.073-200.936-42.216l3.184 1.255c-123.504-52.089-219.845-148.297-270.867-268.406l-1.244-3.295c-25.491-58.777-40.319-127.233-40.319-199.151s14.828-140.374 41.594-202.475l-1.275 3.324c52.293-123.567 148.672-219.935 268.943-270.968l3.305-1.246c58.271-25.888 126.251-40.961 197.752-40.961 0.354 0 0.707 0 1.061 0.001h-0.055c0.133 0 0.29 0 0.448 0 71.878 0 140.237 15.071 202.087 42.225l-3.23-1.265c123.8 52.075 220.346 148.521 271.315 268.949l1.24 3.299c25.837 58.722 40.875 127.18 40.875 199.151s-15.038 140.429-42.144 202.404l1.268-3.253zM901.393 158.242c-40.217-68.559-95.888-124.077-162.461-162.964l-2.13-1.15c-63.812-38.018-140.716-60.493-222.87-60.493-0.968 0-1.934 0.003-2.9 0.009l0.149-0.001c-0.621-0.003-1.355-0.005-2.090-0.005-62.417 0-121.753 13.192-175.372 36.939l2.767-1.094c-55.63 23.837-103.178 56.135-143.411 95.828l0.051-0.050c-39.67 40.326-71.921 88.093-94.447 140.997l-1.126 2.977c-22.294 50.989-35.267 110.407-35.267 172.854 0 0.875 0.003 1.75 0.008 2.624l-0.001-0.135c-0.009 1.028-0.014 2.243-0.014 3.459 0 81.731 22.256 158.264 61.038 223.869l-1.12-2.048c40.059 68.447 95.492 123.913 161.797 162.864l2.112 1.147c63.521 38.036 140.135 60.529 222.002 60.529 1.068 0 2.136-0.004 3.202-0.011l-0.163 0.001c0.803 0.005 1.753 0.008 2.703 0.008 82.174 0 159.096-22.487 224.947-61.644l-2.029 1.117c68.669-40.082 124.328-95.588 163.443-162.005l1.148-2.108c37.996-63.552 60.462-140.185 60.462-222.065 0-1.13-0.004-2.26-0.013-3.388l0.001 0.173c0.007-0.918 0.011-2.004 0.011-3.090 0-82.238-22.448-159.233-61.55-225.192l1.123 2.046zM543.642 389.052v290.133c-0.513 17.433-14.767 31.369-32.277 31.369-0.077 0-0.153 0-0.23-0.001h0.012c-16.999-0.474-30.612-14.314-30.72-31.358v-294.649c0.462-1.266 0.854-2.772 1.107-4.324l0.020-0.148c-0.209-1.313-0.328-2.828-0.328-4.37 0-8.16 3.337-15.541 8.721-20.851l0.003-0.003 167.253-167.492c5.652-5.209 13.23-8.404 21.555-8.404s15.903 3.194 21.577 8.424l-0.022-0.020c5.762 5.51 9.344 13.26 9.344 21.845s-3.582 16.335-9.333 21.835l-0.011 0.011z" />
<glyph unicode="&#xe90e;" glyph-name="ellipsis" horiz-adv-x="4096" d="M512 896c-282.77 0-512-229.23-512-512s229.23-512 512-512c282.77 0 512 229.23 512 512v0c-0.851 282.426-229.573 511.148-511.918 512h-0.082zM3584 896c-282.77 0-512-229.23-512-512s229.23-512 512-512c282.77 0 512 229.23 512 512v0c-0.851 282.426-229.573 511.148-511.918 512h-0.082zM2048 896c-282.77 0-512-229.23-512-512s229.23-512 512-512c282.77 0 512 229.23 512 512v0c-0.851 282.426-229.573 511.148-511.918 512h-0.082z" />
<glyph unicode="&#xe90f;" glyph-name="facebookshare" horiz-adv-x="598" d="M278.46 664.235c26.543 0 48.060 21.517 48.060 48.060v0c0.058 48.385 39.295 87.586 87.688 87.586h135.68c26.543 0 48.060 21.517 48.060 48.060s-21.517 48.060-48.060 48.060v0h-135.68c-101.411-0.117-183.589-82.295-183.706-183.695v-0.011c0 0 0 0 0 0 0-26.507 21.459-48.001 47.952-48.060h0.006zM539.477 513.946h-491.52c-26.543 0-48.060-21.517-48.060-48.060s21.517-48.060 48.060-48.060v0h182.34v-497.801c0-26.543 21.517-48.060 48.060-48.060s48.060 21.517 48.060 48.060v0 497.801h212.992c26.543 0 48.060 21.517 48.060 48.060s-21.517 48.060-48.060 48.060v0z" />
<glyph unicode="&#xe910;" glyph-name="googleshare" horiz-adv-x="974" d="M497.766 252.484c-18.351 12.999-39.311 24.467-61.561 33.402l-2.063 0.732v154.214c64.935 45.746 106.836 120.408 106.836 204.856 0 65.28-25.038 124.711-66.035 169.215l0.159-0.175h96.802c22.442 0 40.636 18.193 40.636 40.636s-18.193 40.636-40.636 40.636v0h-281.088c-138.127-0.096-250.064-112.091-250.064-250.231 0-138.199 112.032-250.231 250.231-250.231 22 0 43.336 2.839 63.664 8.171l-1.743-0.388v-95.027c-17.476 2.716-37.632 4.267-58.151 4.267-0.028 0-0.057 0-0.085 0h0.004c-1.724 0.030-3.758 0.047-5.796 0.047-73.591 0-141.932-22.48-198.53-60.947l1.233 0.791c-53.73-34.357-89.383-92.882-91.572-159.871l-0.008-0.317c2.197-67.306 37.85-125.831 90.791-159.716l0.789-0.472c55.355-37.656 123.678-60.123 197.248-60.123 2.055 0 4.106 0.018 6.153 0.052l-0.308-0.004c1.739-0.031 3.79-0.048 5.845-0.048 73.57 0 141.893 22.467 198.482 60.914l-1.234-0.791c53.726 34.37 89.369 92.909 91.538 159.908l0.008 0.314c-2.189 67.3-37.829 125.823-90.757 159.716l-0.788 0.472zM121.685 645.769c0 93.333 75.661 168.994 168.994 168.994s168.994-75.661 168.994-168.994c0-93.333-75.661-168.994-168.994-168.994-0.012 0-0.024 0-0.036 0h0.002c-93.279 0.116-168.863 75.712-168.96 168.985v0.009zM294.537-46.729c-115.678 0-213.402 63.659-213.402 139.025s97.724 139.025 213.402 139.025 213.402-63.659 213.402-139.025-97.587-139.025-213.265-139.025zM933.171 418.816h-113.937v113.937c0 22.442-18.193 40.636-40.636 40.636s-40.636-18.193-40.636-40.636v0-113.937h-113.903c-22.442 0-40.636-18.193-40.636-40.636s18.193-40.636 40.636-40.636v0h113.903v-113.835c0-22.442 18.193-40.636 40.636-40.636s40.636 18.193 40.636 40.636v0 113.835h113.937c22.442 0 40.636 18.193 40.636 40.636s-18.193 40.636-40.636 40.636v0z" />
<glyph unicode="&#xe911;" glyph-name="greaterthan" horiz-adv-x="814" d="M0 153.054l512 230.946-512 230.946v281.054l813.534-374.716v-274.5l-813.534-374.784z" />
<glyph unicode="&#xe912;" glyph-name="safari" d="M512 896c-282.77 0-512-229.23-512-512s229.23-512 512-512c282.77 0 512 229.23 512 512v0c-0.851 282.426-229.573 511.148-511.918 512h-0.082zM512-31.983c-229.741 0-415.983 186.242-415.983 415.983s186.242 415.983 415.983 415.983c229.741 0 415.983-186.242 415.983-415.983v0c0.001-0.243 0.001-0.532 0.001-0.82 0-229.289-185.875-415.164-415.164-415.164-0.288 0-0.576 0-0.864 0.001h0.044zM777.591 649.557l-198.383-332.8-134.417 134.417zM246.409 118.409l332.8 198.383-134.417 134.417z" />
<glyph unicode="&#xe913;" glyph-name="lessthan" horiz-adv-x="814" d="M0 246.772v274.491l813.473 374.737v-281.044l-511.983-230.938 511.983-230.904v-281.079z" />
<glyph unicode="&#xe914;" glyph-name="firefox" horiz-adv-x="1092" d="M634.095-117.419c261.814 50.453 456.888 277.754 456.888 550.616 0 2.552-0.017 5.101-0.051 7.645l0.004-0.386-3.413-7.066c3.154 18.489 4.957 39.785 4.957 61.503 0 28.242-3.049 55.772-8.835 82.279l0.465-2.538c0.014-0.666 0.022-1.452 0.022-2.239 0-19.873-5.065-38.562-13.974-54.848l0.299 0.597c-0.505 27.811-4.209 54.519-10.761 80.086l0.521-2.398c-3.522 33.982-10.746 65.096-21.352 94.597l0.872-2.779c2.218-9.233 3.489-19.834 3.489-30.732 0-1.604-0.028-3.202-0.082-4.793l0.006 0.231c-40.96 109.466-136.533 247.159-378.402 243.61 50.241-6.823 93.387-32.802 122.569-70.208l0.311-0.414c-7.747 1.977-16.64 3.112-25.799 3.112-16.656 0-32.435-3.753-46.538-10.458l0.657 0.281c37.964-14.352 70.59-30.984 101.053-50.676l-2.066 1.251h3.413c6.827-3.413 13.653-10.581 20.48-14.131 51.2-38.844 98.987-91.819 95.573-158.891-9.504 19.168-26.614 33.352-47.278 38.731l-0.509 0.112c11.902-38.745 18.755-83.283 18.755-129.421 0-36.749-4.348-72.482-12.557-106.714l0.629 3.107c-6.742 28.297-18.552 53.127-34.523 74.688l0.389-0.55c13.653-127.113-3.413-218.897-58.027-278.938 8.407 27.434 13.377 58.993 13.652 91.672l0.001 0.146c-64.853-98.987-136.533-151.825-218.18-155.341-1.35-0.024-2.944-0.037-4.54-0.037-31.341 0-61.471 5.186-89.578 14.747l1.958-0.578c-44.451 16.207-82.196 41.564-112.489 73.974l-0.151 0.164c7.919-0.91 17.096-1.428 26.394-1.428 42.812 0 83.054 11 118.055 30.328l-1.259-0.638 68.267 45.909c4.040 1.679 8.733 2.653 13.653 2.653s9.613-0.975 13.896-2.742l-0.242 0.089c17.067 3.413 23.893 10.581 17.067 28.262-10.202 12.949-22.688 23.594-36.923 31.462l-0.624 0.316c-13.452 6.863-29.34 10.884-46.168 10.884-23.846 0-45.806-8.076-63.294-21.641l0.235 0.176c-14.154-9.78-31.681-15.623-50.573-15.623-20.925 0-40.176 7.168-55.432 19.181l0.192-0.145c-25.26 17.718-46.713 38.757-64.319 62.791l-0.534 0.765-6.827 14.131c-0.563-6.964-0.884-15.077-0.884-23.264 0-33.321 5.318-65.4 15.152-95.434l-0.614 2.167c-9.27 27.621-14.619 59.427-14.619 92.482 0 8.465 0.351 16.848 1.039 25.135l-0.073-1.086c0 24.713 10.24 42.359 30.72 42.359h3.413c29.359-3.6 55.912-9.792 81.308-18.48l-2.801 0.833c0.81 5.548 1.273 11.952 1.273 18.465 0 27.277-8.117 52.659-22.067 73.861l0.314-0.507c20.404 22.194 44.041 40.991 70.255 55.753l1.425 0.738c10.24 3.413 13.653 14.131 17.067 24.713v0c2.444 3.406 3.908 7.659 3.908 12.253 0 6.383-2.826 12.107-7.296 15.987l-0.026 0.022c-3.076-0.106-6.692-0.167-10.322-0.167-16.835 0-33.367 1.302-49.499 3.81l1.795-0.23c-11.666 6.775-21.706 13.779-31.121 21.516l0.401-0.319-30.72 31.778-10.24 7.066-3.413 3.413 3.413 3.413c2.862 23.706 10.11 45.203 20.928 64.423l-0.448-0.867 3.413 3.413c16.055 22.21 35.28 40.946 57.238 55.981l0.789 0.51c-57.776-8.356-108.205-34.966-146.367-73.697l-0.031-0.031c-13.244 3.436-28.448 5.409-44.113 5.409-29.971 0-58.256-7.222-83.208-20.020l1.028 0.479q-46.012 21.197-61.44 127.113c-40.585-38.81-57.651-112.981-57.651-215.381l-10.24-17.647-3.413-3.413c-6.827-10.581-13.653-24.713-23.893-42.359-11.638-20.382-19.058-44.546-20.462-70.311l-0.018-0.413v-21.197l30.72 24.713c-10.237-27.296-18.574-59.425-23.562-92.649l-0.331-2.685v-14.131l-10.24 10.581c0.257-121.139 37.201-233.598 100.306-326.917l-1.32 2.070 6.827-6.827c45.752-64.119 102.456-117.222 167.849-157.604l2.477-1.424c44.149-26.588 95.195-48.354 149.281-62.633l4.114-0.923 10.24-3.413c10.24-3.413 23.893-3.413 34.133-7.066 10.24 0 17.067-3.413 27.307-3.413h81.92c13.653 0 27.307 3.413 40.96 3.413-0.239 6.895 10.001 6.895 10.001 6.895zM978.432 570.948v0z" />
<glyph unicode="&#xe915;" glyph-name="search" horiz-adv-x="1038" d="M1013.453 15.155l-238.626 238.694c40.238 63.243 64.129 140.304 64.129 222.945 0 231.739-187.862 419.601-419.601 419.601s-419.601-187.862-419.601-419.601c0-231.739 187.862-419.601 419.601-419.601 89.685 0 172.799 28.137 240.994 76.066l-1.336-0.89 235.793-235.827c15.233-15.498 36.42-25.103 59.85-25.103 46.337 0 83.9 37.563 83.9 83.9 0 23.43-9.604 44.617-25.091 59.839l-0.012 0.012zM419.43 192.922c-156.579 0-283.511 126.932-283.511 283.511s126.932 283.511 283.511 283.511c156.579 0 283.511-126.932 283.511-283.511v0c0-156.579-126.932-283.511-283.511-283.511v0z" />
<glyph unicode="&#xe916;" glyph-name="facebook" d="M512-128c-0.283-0.001-0.618-0.001-0.954-0.001-71.637 0-139.818 14.801-201.65 41.513l3.299-1.268c-63.273 27.13-117.287 64.156-162.737 109.727l-0.011 0.011c-45.57 45.462-82.585 99.477-108.434 159.436l-1.271 3.312c-25.443 58.524-40.244 126.695-40.244 198.323 0 0.333 0 0.666 0.001 0.999v-0.052c-0.001 0.279-0.001 0.61-0.001 0.94 0 71.631 14.801 139.804 41.513 201.629l-1.268-3.299c27.122 63.271 64.136 117.285 109.695 162.738l0.009 0.009c45.46 45.585 99.475 82.611 159.436 108.468l3.312 1.271c58.522 25.443 126.691 40.244 198.316 40.244 0.347 0 0.695 0 1.042-0.001h-0.054c0.289 0.001 0.632 0.001 0.974 0.001 71.631 0 139.804-14.801 201.629-41.513l-3.298 1.268c63.273-27.127 117.288-64.152 162.736-109.726l0.012-0.012c45.583-45.461 82.608-99.475 108.467-159.435l1.271-3.312c25.421-58.5 40.21-126.641 40.21-198.236 0-0.364 0-0.727-0.001-1.091v0.057c0.001-0.304 0.001-0.663 0.001-1.023 0-71.614-14.802-139.771-41.512-201.578l1.268 3.296c-27.123-63.275-64.15-117.29-109.727-162.736l-0.012-0.012c-45.459-45.586-99.474-82.612-159.436-108.468l-3.312-1.271c-58.513-25.421-126.668-40.21-198.277-40.21-0.349 0-0.698 0-1.047 0.001h0.054zM447.625 384.853v-256h96.427v256h79.019l15.258 95.573h-94.242v29.423c-0.056 0.701-0.087 1.518-0.087 2.342 0 16.979 13.447 30.818 30.272 31.449l0.057 0.002h65.98v97.451h-77.551v-0.341c-2.162 0.142-4.686 0.224-7.23 0.224-33.413 0-63.556-14.001-84.882-36.457l-0.048-0.051c-14.349-19.547-22.963-44.084-22.963-70.633 0-1.665 0.034-3.321 0.101-4.97l-0.008 0.236h-0.171v-48.674h-64v-95.573z" />
<glyph unicode="&#xe917;" glyph-name="twitter" d="M512-128c-0.283-0.001-0.618-0.001-0.954-0.001-71.637 0-139.818 14.801-201.65 41.513l3.299-1.268c-63.273 27.13-117.287 64.156-162.737 109.727l-0.011 0.011c-45.57 45.462-82.585 99.477-108.434 159.436l-1.271 3.312c-25.443 58.524-40.244 126.695-40.244 198.323 0 0.333 0 0.666 0.001 0.999v-0.052c-0.001 0.279-0.001 0.61-0.001 0.94 0 71.631 14.801 139.804 41.513 201.629l-1.268-3.299c27.122 63.271 64.136 117.285 109.695 162.738l0.009 0.009c45.46 45.585 99.475 82.611 159.436 108.468l3.312 1.271c58.522 25.443 126.691 40.244 198.316 40.244 0.347 0 0.695 0 1.042-0.001h-0.054c0.289 0.001 0.632 0.001 0.974 0.001 71.631 0 139.804-14.801 201.629-41.513l-3.298 1.268c63.273-27.127 117.288-64.152 162.736-109.726l0.012-0.012c45.583-45.461 82.608-99.475 108.467-159.435l1.271-3.312c25.421-58.5 40.21-126.641 40.21-198.236 0-0.364 0-0.727-0.001-1.091v0.057c0.001-0.304 0.001-0.663 0.001-1.023 0-71.614-14.802-139.771-41.512-201.578l1.268 3.296c-27.123-63.275-64.15-117.29-109.727-162.736l-0.012-0.012c-45.459-45.586-99.474-82.612-159.436-108.468l-3.312-1.271c-58.513-25.421-126.668-40.21-198.277-40.21-0.349 0-0.698 0-1.047 0.001h0.054zM223.949 182.613v0c54.223-34.169 120.18-54.443 190.872-54.443 0.097 0 0.193 0 0.29 0h-0.015c2.593-0.070 5.645-0.109 8.707-0.109 190.745 0 345.469 154.224 346.279 344.779v0.077l-0.341 15.701c24.473 17.238 45.101 38.007 61.656 61.821l0.535 0.814c-20.884-9.253-45.109-15.986-70.474-18.998l-1.206-0.117c25.675 14.943 45.071 38.278 54.631 66.18l0.255 0.858c-22.842-13.425-49.41-23.644-77.659-29.163l-1.599-0.26c-23.102 23.599-55.285 38.229-90.885 38.229-0.064 0-0.129 0-0.193 0h0.010c-0.502 0.007-1.095 0.012-1.689 0.012-67.262 0-121.922-53.952-123.067-120.941l-0.001-0.107c0-0.045 0-0.099 0-0.153 0-9.745 1.182-19.213 3.411-28.27l-0.168 0.809c-53.034 2.487-102.349 16.081-146.43 38.49l2.046-0.944c-44.391 22.416-81.841 52.232-112.207 88.22l-0.433 0.526c-10.666-17.353-17.007-38.36-17.067-60.843v-0.017c0.132-42.176 22.005-79.214 54.995-100.51l0.472-0.285c-20.805 0.605-40.186 6.159-57.176 15.518l0.651-0.329v-1.536c0.769-59.055 43.266-107.962 99.315-118.629l0.764-0.121c-9.852-2.71-21.164-4.267-32.839-4.267-0.011 0-0.022 0-0.033 0h0.002c-0.018 0-0.040 0-0.061 0-8.271 0-16.356 0.795-24.183 2.313l0.795-0.128c17.124-49.013 62.758-83.632 116.543-84.104h0.057c-42.153-32.356-95.653-51.852-153.707-51.852-0.454 0-0.908 0.001-1.362 0.004h0.070c-10.459 0.038-20.724 0.682-30.814 1.898l1.254-0.123z" />
<glyph unicode="&#xe918;" glyph-name="linkedin" d="M512-128c-0.293-0.001-0.641-0.001-0.988-0.001-71.626 0-139.795 14.801-201.615 41.513l3.298-1.268c-63.274 27.125-117.29 64.151-162.736 109.727l-0.012 0.012c-45.57 45.462-82.585 99.477-108.434 159.436l-1.271 3.312c-25.443 58.532-40.244 126.713-40.244 198.351 0 0.323 0 0.646 0.001 0.969v-0.050c-0.001 0.279-0.001 0.61-0.001 0.94 0 71.631 14.801 139.804 41.513 201.629l-1.268-3.299c27.122 63.271 64.136 117.285 109.695 162.738l0.009 0.009c45.46 45.585 99.475 82.611 159.436 108.468l3.312 1.271c58.522 25.443 126.691 40.244 198.316 40.244 0.347 0 0.695 0 1.042-0.001h-0.054c0.289 0.001 0.632 0.001 0.974 0.001 71.631 0 139.804-14.801 201.629-41.513l-3.298 1.268c63.273-27.127 117.288-64.152 162.736-109.726l0.012-0.012c45.583-45.461 82.608-99.475 108.467-159.435l1.271-3.312c25.421-58.5 40.21-126.641 40.21-198.236 0-0.364 0-0.727-0.001-1.091v0.057c0.001-0.287 0.001-0.627 0.001-0.967 0-71.633-14.801-139.809-41.513-201.637l1.269 3.299c-27.124-63.275-64.151-117.29-109.727-162.736l-0.012-0.012c-45.457-45.588-99.473-82.614-159.437-108.468l-3.311-1.27c-58.504-25.421-126.65-40.21-198.25-40.21-0.359 0-0.717 0-1.076 0.001h0.055zM448.102 513.126v-320.614h96.222v173.397c1.961 40.291 35.027 72.236 75.59 72.397h0.016c0.876 0.061 1.899 0.095 2.93 0.095 16.581 0 31.076-8.93 38.94-22.242l0.115-0.21c6.661-12.881 10.567-28.117 10.567-44.265 0-1.719-0.044-3.428-0.132-5.125l0.010 0.238v-174.080h95.881v181.35c0.46 4.733 0.723 10.232 0.723 15.792 0 40.148-13.685 77.099-36.644 106.444l0.286-0.38c-16.957 16.934-40.371 27.406-66.231 27.406-1.52 0-3.032-0.036-4.535-0.108l0.212 0.008c-1.405 0.049-3.055 0.077-4.712 0.077-45.664 0-86.365-21.249-112.755-54.397l-0.225-0.293v44.373zM288.495 512.068v-319.556h95.881v319.556zM335.974 640c-26.489-0.039-47.953-21.502-47.991-47.988v-0.004c0.039-26.489 21.502-47.953 47.988-47.991h0.004c26.489 0.039 47.953 21.502 47.991 47.988v0.004c-0.039 26.477-21.483 47.933-47.952 47.991h-0.006z" />
<glyph unicode="&#xe919;" glyph-name="google" d="M512-128c-0.208 0-0.454 0-0.7 0-71.565 0-139.658 14.866-201.359 41.679l3.267-1.264c-63.288 27.266-117.316 64.373-162.804 109.999l-0.012 0.013c-45.64 45.5-82.747 99.528-108.731 159.497l-1.28 3.319c-25.527 58.408-40.38 126.469-40.38 197.998 0 0.267 0 0.535 0.001 0.802v-0.042c0 0.208 0 0.454 0 0.7 0 71.565 14.866 139.658 41.679 201.359l-1.264-3.267c27.271 63.273 64.377 117.29 109.998 162.769l0.013 0.013c45.5 45.639 99.528 82.746 159.496 108.731l3.32 1.281c58.432 25.548 126.522 40.414 198.085 40.414 0.237 0 0.473 0 0.71 0h-0.037c0.212 0 0.463 0.001 0.714 0.001 71.56 0 139.649-14.866 201.345-41.679l-3.266 1.264c63.286-27.27 117.314-64.376 162.804-109.999l0.012-0.013c45.632-45.493 82.737-99.509 108.73-159.462l1.282-3.32c25.527-58.412 40.38-126.478 40.38-198.012 0-0.274 0-0.549-0.001-0.823v0.043c0-0.212 0.001-0.463 0.001-0.714 0-71.56-14.866-139.649-41.679-201.345l1.264 3.266c-27.268-63.286-64.374-117.314-109.999-162.803l-0.013-0.013c-45.502-45.636-99.53-82.742-159.496-108.731l-3.32-1.281c-58.408-25.527-126.469-40.38-197.998-40.38-0.267 0-0.535 0-0.802 0.001h0.042zM392.977 584.431c-0.272 0.001-0.594 0.002-0.916 0.002-53.158 0-101.279-21.564-136.093-56.423l-0.002-0.002c-37.107-36.525-60.165-87.229-60.382-143.319v-0.041c-0.022-1.104-0.034-2.405-0.034-3.709 0-54.805 21.837-104.51 57.284-140.889l-0.042 0.043c37.106-35.908 87.736-58.038 143.534-58.038 0.755 0 1.509 0.004 2.262 0.012l-0.115-0.001c0.646-0.007 1.409-0.011 2.173-0.011 54.147 0 103.428 20.833 140.265 54.92l-0.136-0.125c27.63 29.454 45.423 68.428 47.968 111.503l0.023 0.489v44.817l-3.209 16.009h-182.409v-64h115.2v-6.417c-4.567-20.292-14.73-37.738-28.771-51.164l-0.038-0.036c-21.438-23.634-52.267-38.415-86.547-38.415-0.653 0-1.305 0.005-1.956 0.016l0.098-0.001c-0.263-0.002-0.574-0.003-0.885-0.003-35.326 0-67.215 14.719-89.867 38.359l-0.042 0.044c-23.025 23.329-37.245 55.395-37.245 90.784 0 1.132 0.015 2.261 0.043 3.386l-0.003-0.166c0.087 35.629 14.258 67.932 37.239 91.648l-0.033-0.035c22.743 22.681 54.091 36.742 88.723 36.864h0.023c0.251 0.002 0.547 0.003 0.844 0.003 22.609 0 43.678-6.591 61.391-17.957l-0.454 0.272 19.183-12.8 51.2 51.2-31.983 22.391-28.809 15.974c-22.952 9.336-49.577 14.773-77.466 14.814h-0.017zM713.591 355.191v-57.583h57.617v57.583h57.583v57.583h-57.583v57.583h-57.617v-57.583h-57.583v-57.617z" />
<glyph unicode="&#xe91a;" glyph-name="twittershare" horiz-adv-x="1270" d="M1261.295 747.52c-8.739 12.529-23.082 20.624-39.316 20.624-10.222 0-19.694-3.21-27.464-8.676l0.152 0.101-148.855-103.253c-12.475-8.745-20.53-23.057-20.53-39.251 0-0.769 0.018-1.534 0.054-2.294l-0.004 0.107c0.444-9.865 0.649-19.081 0.649-28.228 0.019-1.805 0.030-3.937 0.030-6.072 0-338.419-274.343-612.762-612.762-612.762-2.159 0-4.315 0.011-6.468 0.033l0.328-0.003c-0.084 0-0.184 0-0.284 0-82.4 0-161.022 16.173-232.865 45.519l4.114-1.487 229.649 64.239c20.326 5.826 34.95 24.245 34.95 46.080 0 26.428-21.424 47.852-47.852 47.852-4.593 0-9.035-0.647-13.24-1.855l0.338 0.083-346.897-96.905c-20.428-5.732-35.157-24.19-35.157-46.087 0-16.907 8.78-31.763 22.029-40.258l0.191-0.114c108.763-70.784 241.841-112.879 384.751-112.879 0.108 0 0.216 0 0.324 0h-0.017c4.593-0.111 10.003-0.174 15.428-0.174 205.125 0 389.205 90.1 514.825 232.884l0.657 0.762c112.766 127.835 182.111 296.311 183.669 480.955l0.002 0.325q0 2.833 0 5.7l127.556 88.337c12.534 8.738 20.633 23.084 20.633 39.322 0 10.249-3.226 19.744-8.718 27.525l0.101-0.15zM105.745 762.436l482.953-244.804c6.33-3.309 13.826-5.25 21.776-5.25 26.392 0 47.787 21.395 47.787 47.787 0 3.922-0.472 7.733-1.363 11.38l0.068-0.327c-3.103 12.738-4.883 27.361-4.883 42.4 0 103.022 83.516 186.539 186.539 186.539 53.576 0 101.876-22.586 135.899-58.756l0.090-0.096c8.742-9.32 21.135-15.126 34.883-15.126 5.855 0 11.463 1.053 16.647 2.98l-0.33-0.108 149.060 54.17c18.564 6.887 31.554 24.446 31.554 45.039 0 26.466-21.455 47.921-47.921 47.921-5.873 0-11.499-1.056-16.698-2.99l0.331 0.108-121.276-44.066c-48.848 41.526-112.651 66.782-182.352 66.782-146.377 0-266.738-111.386-280.947-254.022l-0.095-1.176-408.576 207.121c-6.305 3.271-13.766 5.19-21.675 5.19-26.43 0-47.856-21.426-47.856-47.856 0-18.522 10.522-34.586 25.914-42.541l0.267-0.126zM81.067 475.477l106.121-29.286c3.822-1.096 8.212-1.727 12.749-1.727 26.469 0 47.926 21.457 47.926 47.926 0 21.932-14.732 40.423-34.84 46.118l-0.338 0.082-106.121 29.286c-3.822 1.096-8.212 1.727-12.749 1.727-26.469 0-47.926-21.457-47.926-47.926 0-21.932 14.732-40.423 34.84-46.118l0.338-0.082zM174.114 332.834c-26.078-0.498-47.027-21.756-47.027-47.906 0-26.462 21.452-47.914 47.914-47.914 0.312 0 0.623 0.003 0.934 0.009l-0.047-0.001h1.843l105.813 4.028c25.677 1 46.114 22.058 46.114 47.889 0 26.467-21.456 47.923-47.923 47.923-0.636 0-1.27-0.012-1.9-0.037l0.091 0.003z" />
<glyph unicode="&#xe91b;" glyph-name="site" d="M511.966 896c-282.77 0-512-229.23-512-512s229.23-512 512-512c282.77 0 512 229.23 512 512v0c0 282.77-229.23 512-512 512v0zM769.229 475.136l-125.201-125.269c-13.014-13.007-30.988-21.052-50.842-21.052s-37.828 8.045-50.842 21.052l-4.915 4.915-13.346-13.346 4.881-4.881c12.991-13.021 21.024-30.993 21.024-50.842s-8.033-37.821-21.025-50.843l-125.2-125.234c-13.015-13.017-30.997-21.069-50.859-21.069s-37.844 8.052-50.859 21.069v0l-47.309 47.377c-12.991 13.021-21.024 30.993-21.024 50.842s8.033 37.821 21.025 50.843l125.234 125.302c13.015 13.017 30.997 21.069 50.859 21.069s37.844-8.052 50.859-21.069l4.881-4.881 13.346 13.346-4.881 4.881c-12.991 13.021-21.024 30.993-21.024 50.842s8.033 37.821 21.025 50.843l125.234 125.234c13.015 13.017 30.997 21.069 50.859 21.069s37.844-8.052 50.859-21.069l47.343-47.343c12.991-13.021 21.024-30.993 21.024-50.842 0-19.899-8.074-37.913-21.125-50.943l-0.001-0.001zM486.502 303.923l-24.201-24.201-37.547 37.547 24.201 24.201-4.881 4.881c-3.401 3.391-8.095 5.488-13.278 5.488s-9.876-2.097-13.278-5.488v0l-125.235-125.201c-3.391-3.401-5.488-8.095-5.488-13.278s2.097-9.876 5.488-13.278v0l47.343-47.343c3.449-3.298 8.135-5.328 13.295-5.328s9.846 2.030 13.302 5.335l125.194 125.228c3.401 3.403 5.505 8.103 5.505 13.295s-2.103 9.892-5.505 13.295v0zM684.339 586.615c-3.403 3.401-8.103 5.505-13.295 5.505s-9.892-2.103-13.295-5.505l-125.235-125.201c-3.393-3.407-5.491-8.106-5.491-13.295s2.098-9.888 5.491-13.296l4.88-4.88 37.137 37.137 37.547-37.547-37.137-37.137 4.881-4.881c3.449-3.298 8.135-5.328 13.295-5.328s9.846 2.030 13.302 5.335l125.194 125.194c3.401 3.403 5.505 8.103 5.505 13.295s-2.103 9.892-5.505 13.295v0z" />
<glyph unicode="&#xe91c;" glyph-name="enter" horiz-adv-x="836" d="M466.065 227.453l14.78-32.515h-24.978c6.452 7.683 10.371 17.681 10.371 28.594 0 1.38-0.063 2.746-0.185 4.095l0.013-0.174zM0.118 896v-701.21h386.668c-4.118 4.703-7.25 10.381-9.002 16.635l-0.072 0.303c-2.010 7.272-4.375 16.139-6.769 25.007h-329.115v617.498h752.555v-617.409h-185.841l11.824-41.797h215.784v700.974zM427.253 624.23c32.372 12.151 54.993 42.843 54.993 78.818 0 46.38-37.598 83.979-83.979 83.979s-83.979-37.598-83.979-83.979c0-10.315 1.86-20.195 5.262-29.324l-0.189 0.58c12.108-32.477 42.857-55.188 78.91-55.188 10.36 0 20.281 1.875 29.444 5.305l-0.58-0.19zM586.047 255.475h146.999l-119.568 103.281-68.933 180.579 73.367 54.035c7.311 5.391 12.001 13.97 12.001 23.645 0 0.001 0 0.002 0 0.003v0 202.128c0 16.178-13.115 29.293-29.293 29.293s-29.293-13.115-29.293-29.293v0-170.026c-49.613-10.384-93.107-24.428-134.472-42.444l4.411 1.711-7.567-2.601-7.567-2.956c-73.662-26.899-94.886-61.72-99.822-108.395-2.365-23.352 67.603-278.303 67.603-278.303 3.158-12.45 14.265-21.513 27.488-21.513 2.404 0 4.738 0.3 6.967 0.863l-0.196-0.042c0.946 0.473 1.892 0.591 2.808 1.064 10.936 3.943 18.613 14.231 18.613 26.312 0 2.467-0.32 4.859-0.921 7.137l0.044-0.195-57.789 222.849 66.125-164.942 70.943-155.66-102.571-198.906c-2.935-5.574-4.658-12.181-4.658-19.19 0-16.117 9.109-30.106 22.459-37.1l0.23-0.11c5.543-2.911 12.111-4.619 19.078-4.619 16.064 0 30.007 9.082 36.975 22.391l0.109 0.23 114.159 221.519c2.924 5.581 4.639 12.192 4.639 19.203 0 5.715-1.14 11.165-3.205 16.133l0.103-0.279z" />
</font>
</defs>
</svg>
